<?xml version="1.0" standalone="no"?>
<!DOCTYPE svg PUBLIC "-//W3C//DTD SVG 20010904//EN"
 "http://www.w3.org/TR/2001/REC-SVG-20010904/DTD/svg10.dtd">
<svg version="1.0" xmlns="http://www.w3.org/2000/svg"
 width="700.000000pt" height="700.000000pt" viewBox="0 0 700.000000 700.000000"
 preserveAspectRatio="xMidYMid meet">
<metadata>
Created by potrace 1.14, written by Peter Selinger 2001-2017
</metadata>
<g transform="translate(0.000000,700.000000) scale(0.100000,-0.100000)"
fill="#000000" stroke="none">
<path d="M3280 6994 c-19 -2 -84 -9 -145 -14 -578 -56 -1180 -283 -1660 -625
-237 -169 -531 -446 -709 -670 -416 -521 -673 -1147 -748 -1820 -17 -154 -17
-585 0 -730 69 -588 254 -1099 567 -1570 126 -189 242 -332 410 -504 580 -595
1295 -943 2140 -1043 145 -17 576 -17 730 0 822 91 1556 447 2131 1034 203
206 348 390 487 618 274 449 432 913 499 1465 16 135 16 591 0 730 -86 724
-352 1347 -803 1885 -122 145 -351 370 -494 484 -510 407 -1117 661 -1775 742
-117 15 -553 27 -630 18z m304 -960 c54 -19 111 -71 132 -120 7 -18 50 -196
94 -396 92 -418 128 -536 210 -706 227 -468 627 -807 1130 -957 41 -12 237
-58 434 -101 415 -91 440 -101 488 -193 33 -62 38 -148 12 -209 -17 -43 -67
-97 -107 -118 -15 -8 -200 -53 -410 -99 -210 -47 -425 -99 -477 -116 -534
-174 -970 -603 -1154 -1138 -20 -57 -75 -278 -122 -490 -47 -212 -94 -402
-104 -421 -41 -80 -116 -124 -210 -124 -94 0 -169 44 -210 124 -10 19 -56 209
-104 422 -91 407 -127 530 -206 693 -125 260 -340 515 -581 688 -112 80 -357
204 -488 246 -52 17 -267 69 -478 116 -212 47 -397 92 -411 99 -113 59 -156
209 -94 327 48 92 64 98 513 198 427 96 526 125 695 206 365 176 659 471 844
846 82 167 116 281 210 706 44 200 86 378 94 396 44 107 180 162 300 121z"/>
</g>
</svg>
