<?xml version="1.0" standalone="no"?>
<!DOCTYPE svg PUBLIC "-//W3C//DTD SVG 20010904//EN"
 "http://www.w3.org/TR/2001/REC-SVG-20010904/DTD/svg10.dtd">
<svg version="1.0" xmlns="http://www.w3.org/2000/svg"
 width="700.000000pt" height="700.000000pt" viewBox="0 0 700.000000 700.000000"
 preserveAspectRatio="xMidYMid meet">
<metadata>
Created by potrace 1.11, written by Peter Selinger 2001-2013
</metadata>
<g transform="translate(0.000000,700.000000) scale(0.100000,-0.100000)"
fill="#000000" stroke="none">
<path d="M3411 6763 c-73 -125 -136 -235 -141 -243 -5 -8 -64 -111 -132 -229
-68 -117 -133 -230 -144 -250 -12 -20 -65 -112 -119 -206 -159 -277 -195 -339
-205 -355 -6 -8 -13 -22 -17 -30 -3 -8 -14 -26 -23 -40 -9 -14 -31 -50 -47
-80 -32 -58 -68 -120 -258 -450 -179 -310 -463 -803 -625 -1085 -10 -16 -29
-50 -44 -75 -14 -25 -26 -48 -26 -51 0 -3 319 -6 710 -6 635 0 711 2 723 16 8
9 68 111 134 226 66 116 146 255 178 310 32 55 66 114 75 130 9 17 32 56 49
87 18 32 37 60 41 63 4 3 17 -12 28 -33 11 -20 95 -167 187 -327 92 -159 176
-306 187 -325 11 -19 35 -60 54 -91 l33 -56 711 0 c391 0 713 3 715 7 3 4 -2
13 -10 20 -8 7 -15 16 -15 20 0 4 -29 57 -64 118 -36 61 -76 131 -89 154 -14
24 -75 131 -137 238 -62 107 -140 242 -173 300 -55 96 -215 375 -236 410 -10
16 -285 493 -311 539 -8 14 -31 53 -49 86 -19 33 -71 123 -116 200 -46 77 -92
158 -104 180 -12 22 -31 56 -42 75 -27 44 -353 610 -387 670 -30 54 -174 304
-177 308 -2 2 -62 -100 -134 -225z"/>
<path d="M1630 3344 c0 -3 37 -69 82 -147 45 -78 131 -227 191 -332 60 -104
123 -214 139 -243 17 -30 56 -97 87 -150 31 -54 60 -104 64 -112 4 -8 17 -31
28 -50 12 -19 82 -141 157 -270 229 -398 315 -548 429 -745 180 -310 339 -587
363 -630 12 -22 39 -69 60 -105 21 -36 49 -84 62 -106 105 -188 244 -424 249
-424 5 0 87 136 191 320 29 50 322 559 344 597 22 36 176 304 215 373 14 25
86 149 159 275 73 127 157 273 187 325 30 52 58 102 64 110 8 13 342 593 392
680 18 33 354 616 364 633 2 4 -319 7 -714 7 l-718 0 -11 -23 c-6 -12 -62
-110 -124 -217 -62 -107 -125 -215 -139 -241 -141 -248 -207 -357 -213 -351
-5 6 -118 198 -162 277 -13 23 -136 238 -151 263 -6 9 -45 79 -89 155 l-78
137 -714 0 c-393 0 -714 -3 -714 -6z"/>
</g>
</svg>
