<?xml version="1.0" encoding="UTF-8" standalone="no"?><!DOCTYPE svg PUBLIC "-//W3C//DTD SVG 1.1//EN" "http://www.w3.org/Graphics/SVG/1.1/DTD/svg11.dtd"><svg width="100%" height="100%" viewBox="0 0 229 79" version="1.1" xmlns="http://www.w3.org/2000/svg" xmlns:xlink="http://www.w3.org/1999/xlink" xml:space="preserve" xmlns:serif="http://www.serif.com/" style="fill-rule:evenodd;clip-rule:evenodd;stroke-linejoin:round;stroke-miterlimit:1.41421;"><g><g><path d="M0.368,75.503c-0.38,1.302 1.085,2.712 2.604,2.712c1.681,0 2.549,-1.41 2.929,-2.712l2.061,-6.511l11.553,0l2.007,6.511c0.379,1.302 1.247,2.712 2.928,2.712c1.519,0 2.984,-1.41 2.604,-2.712l-10.468,-36.723c-0.38,-1.411 -1.031,-2.767 -2.821,-2.767c-1.735,0 -2.332,1.302 -2.766,2.767l-10.631,36.723Zm17.628,-11.929l-8.516,0l4.231,-14.703l0.109,0l4.176,14.703Z" style="fill:#484849;fill-rule:nonzero;"/><path d="M50.666,54.181c1.412,0 2.334,0.109 3.203,1.031c0.651,0.706 1.247,1.086 2.222,1.086c1.409,0 2.655,-1.14 2.655,-2.604c0,-1.463 -1.084,-2.114 -2.059,-2.926c-1.951,-1.626 -3.144,-1.788 -6.021,-1.788l-8.901,0c-3.905,0 -7.156,2.492 -7.156,6.612c0,3.365 1.68,5.048 4.552,6.35l12.265,5.59c1.195,0.543 2.714,1.357 2.714,2.605c0,3.039 -2.496,2.877 -4.342,2.877l-7.056,0c-1.629,0 -3.256,-0.109 -4.178,-1.14c-0.596,-0.651 -1.192,-0.922 -2.004,-0.922c-1.463,0 -2.71,1.139 -2.71,2.604c0,1.3 1.409,2.275 2.385,3.034c1.95,1.517 3.793,1.625 6.507,1.625l8.033,0c4.991,0 8.567,-2.492 8.567,-7.752c0,-3.745 -1.734,-5.861 -5.093,-7.381l-13.027,-5.916c-0.76,-0.326 -1.411,-0.651 -1.411,-1.52c0,-1.682 1.845,-1.465 2.931,-1.465l7.924,0Z" style="fill:#484849;fill-rule:nonzero;"/><path d="M75.541,54.181l8.735,0c1.519,0 3.58,-0.325 3.58,-2.601c0,-2.221 -1.844,-2.6 -3.58,-2.6l-8.735,0l0,-5.317c0,-1.791 -0.379,-3.581 -2.601,-3.581c-2.221,0 -2.601,1.79 -2.601,3.581l0,5.317l-1.682,0c-1.736,0 -3.58,0.379 -3.58,2.6c0,2.276 2.061,2.601 3.58,2.601l1.682,0l0,14.165c0,2.823 -0.108,5.047 1.897,7.269c1.842,2.004 4.119,2.6 6.723,2.6l2.658,0c2.767,0 5.263,-0.379 7.162,-2.655c0.868,-1.029 1.79,-2.872 1.79,-4.337c0,-1.465 -1.194,-2.605 -2.658,-2.605c-1.302,0 -2.279,0.868 -2.605,2.116c-0.542,2.117 -1.519,2.28 -3.635,2.28l-2.658,0c-3.581,0 -3.472,-1.683 -3.472,-4.613l0,-14.22Z" style="fill:#484849;fill-rule:nonzero;"/><path d="M98.304,74.635c0,1.79 0.379,3.58 2.601,3.58c2.221,0 2.6,-1.79 2.6,-3.58l0,-13.184l7.274,-6.022c0.922,-0.76 1.628,-1.248 2.605,-1.248l1.52,0c1.248,0 2.496,0 3.148,0.923c0.543,0.759 0.543,1.41 0.543,2.278c0,1.682 0.758,3.201 2.655,3.201c2.221,0 2.546,-1.845 2.546,-3.635c0,-2.387 -0.596,-4.176 -2.33,-5.909c-1.408,-1.409 -3.089,-2.059 -5.097,-2.059l-4.179,0c-1.629,0 -3.148,1.029 -4.614,2.221l-4.071,3.36l0,-2.114c0,-1.734 -0.541,-3.467 -2.6,-3.467c-2.384,0 -2.601,1.95 -2.601,3.847l0,21.808Z" style="fill:#484849;fill-rule:nonzero;"/><path d="M156.029,52.56c0,-1.79 -0.379,-3.58 -2.6,-3.58c-2.222,0 -2.601,1.79 -2.601,3.58l0,15.137l-7.653,4.829c-0.489,0.325 -1.032,0.488 -1.629,0.488l-1.737,0c-1.248,0 -2.605,-0.326 -3.039,-1.085c-0.435,-0.76 -0.489,-2.17 -0.543,-3.364l-0.542,-16.005c-0.055,-1.681 -0.325,-3.58 -2.547,-3.58c-2.384,0 -2.655,2.007 -2.601,3.906l0.542,16.384c0.109,2.822 0.054,5.044 2.384,7.049c1.734,1.463 3.361,1.896 4.826,1.896l3.854,0c1.411,0 2.823,-0.65 4.505,-1.733l4.234,-2.764l0,0.867c0,1.788 0.379,3.63 2.601,3.63c2.763,0 2.546,-2.655 2.546,-3.847l0,-21.808Z" style="fill:#484849;fill-rule:nonzero;"/><path d="M180.202,56.514c0.434,-0.488 1.412,-1.79 2.173,-1.79c1.412,0 1.141,1.844 1.195,2.767l0.543,17.198c0.054,1.736 0.487,3.526 2.6,3.526c2.33,0 2.602,-2.061 2.547,-3.906l-0.542,-18.012c-0.054,-2.007 0.054,-3.524 -1.246,-5.204c-1.029,-1.355 -2.601,-2.113 -4.336,-2.113c-2.282,0 -2.934,0.542 -4.563,2.167l-0.433,0.434c-1.192,-1.626 -2.764,-2.601 -4.77,-2.601c-1.793,0 -2.608,0.704 -3.966,1.734l-0.434,0.325c-0.325,-1.192 -1.192,-2.059 -2.493,-2.059c-2.221,0 -2.709,1.842 -2.709,3.685l0,21.97c0,1.79 0.379,3.58 2.601,3.58c2.221,0 2.601,-1.79 2.601,-3.58l0,-16.927l2.281,-2.116c0.435,-0.38 0.815,-0.868 1.413,-0.868c1.358,0 1.249,1.627 1.249,2.495l0,17.416c0,1.79 0.38,3.58 2.601,3.58c2.222,0 2.601,-1.79 2.601,-3.58l0,-16.927l1.087,-1.194Z" style="fill:#484849;fill-rule:nonzero;"/></g><g><path d="M217.283,12.916l11.574,20.085l-13.8,0l-4.674,-8.111l-0.494,-0.69l6.761,-11.284l0.633,0Z" style="fill:url(#_Linear1);"/><path d="M203.484,56.101l-11.574,-20.086l13.799,0l4.674,8.112l0.495,0.69l-6.762,11.284l-0.632,0Z" style="fill:url(#_Linear2);"/><path d="M217.283,12.916l-11.574,20.085l-13.799,0l18.473,-32.059l6.9,11.974Z" style="fill:#93df95;"/><path d="M203.484,56.101l11.573,-20.086l13.8,0l-18.474,32.06l-6.899,-11.974Z" style="fill:#93df95;"/></g><g><path d="M158.123,23.179l3.194,0c0.555,0 1.309,-0.119 1.309,-0.951c0,-0.812 -0.674,-0.951 -1.309,-0.951l-3.194,0l0,-1.944c0,-0.654 -0.139,-1.309 -0.951,-1.309c-0.812,0 -0.951,0.655 -0.951,1.309l0,1.944l-0.615,0c-0.634,0 -1.309,0.139 -1.309,0.951c0,0.832 0.754,0.951 1.309,0.951l0.615,0l0,5.179c0,1.032 -0.039,1.845 0.694,2.658c0.673,0.733 1.506,0.951 2.458,0.951l0.972,0c1.011,0 1.924,-0.139 2.618,-0.971c0.318,-0.377 0.655,-1.05 0.655,-1.586c0,-0.536 -0.437,-0.953 -0.972,-0.953c-0.476,0 -0.833,0.318 -0.952,0.774c-0.199,0.774 -0.556,0.834 -1.329,0.834l-0.972,0c-1.309,0 -1.27,-0.615 -1.27,-1.687l0,-5.199Z" style="fill:#74cf77;fill-rule:nonzero;"/><path d="M175.916,25.798c0,-1.349 -0.099,-1.885 -1.208,-2.758l-1.15,-0.891c-0.516,-0.396 -1.131,-0.872 -1.588,-0.872l-1.309,0c-0.536,0 -1.29,0.713 -1.786,1.149l-0.377,0.337l0,-0.238c0,-0.634 -0.179,-1.248 -0.951,-1.248c-0.872,0 -0.951,0.733 -0.951,1.407l0,12.02c0,0.655 0.138,1.309 0.951,1.309c0.812,0 0.951,-0.654 0.951,-1.309l0,-3.827l0.377,0.357c0.615,0.575 1.012,1.129 1.865,1.129l1.29,0c0.516,0 1.131,-0.535 1.528,-0.852l1.15,-0.911c1.109,-0.873 1.208,-1.389 1.208,-2.758l0,-2.044Zm-1.902,2.302c0,0.357 -0.099,0.576 -0.396,0.834l-1.429,1.19c-0.179,0.159 -0.397,0.337 -0.655,0.337l-0.496,0c-0.238,0 -0.536,-0.258 -0.814,-0.535l-1.449,-1.369c-0.198,-0.179 -0.277,-0.536 -0.277,-0.814l0,-1.865c0,-0.417 0.138,-0.635 0.535,-1.012l1.191,-1.131c0.198,-0.199 0.536,-0.556 0.814,-0.556l0.496,0c0.258,0 0.476,0.179 0.655,0.337l1.429,1.191c0.297,0.258 0.396,0.476 0.396,0.833l0,2.56Z" style="fill:#74cf77;fill-rule:nonzero;"/><path d="M183.613,18.677c0,-1.129 -0.317,-1.327 -1.407,-1.327l-2.003,0c-0.634,0 -1.309,0.138 -1.309,0.951c0,0.832 0.754,0.95 1.309,0.95l1.508,0l0,10.814l-1.508,0c-0.634,0 -1.309,0.138 -1.309,0.951c0,0.832 0.754,0.951 1.309,0.951l4.838,0c0.555,0 1.309,-0.119 1.309,-0.951c0,-0.813 -0.674,-0.951 -1.309,-0.951l-1.428,0l0,-11.388Z" style="fill:#74cf77;fill-rule:nonzero;"/></g></g><defs><linearGradient id="_Linear1" x1="0" y1="0" x2="1" y2="0" gradientUnits="userSpaceOnUse" gradientTransform="matrix(-6.76651,-10.3156,10.3156,-6.76651,219.968,28.1495)"><stop offset="0" style="stop-color:#93df95;stop-opacity:1"/><stop offset="1" style="stop-color:#64c667;stop-opacity:1"/></linearGradient><linearGradient id="_Linear2" x1="0" y1="0" x2="1" y2="0" gradientUnits="userSpaceOnUse" gradientTransform="matrix(6.76651,10.3156,-10.3156,6.76651,200.798,40.8673)"><stop offset="0" style="stop-color:#93df95;stop-opacity:1"/><stop offset="1" style="stop-color:#64c667;stop-opacity:1"/></linearGradient></defs></svg>