<?xml version="1.0" encoding="UTF-8" standalone="no"?>
<!DOCTYPE svg PUBLIC "-//W3C//DTD SVG 1.1//EN" "http://www.w3.org/Graphics/SVG/1.1/DTD/svg11.dtd">
<svg width="100%" height="100%" viewBox="0 0 100 48" version="1.1" xmlns="http://www.w3.org/2000/svg" xmlns:xlink="http://www.w3.org/1999/xlink" xml:space="preserve" xmlns:serif="http://www.serif.com/" style="fill-rule:evenodd;clip-rule:evenodd;stroke-linejoin:round;stroke-miterlimit:2;">
    <g transform="matrix(1,0,0,1,-5318,-31)">
        <g transform="matrix(1,0,0,4.13281,-18,0)">
            <g transform="matrix(1.07889,0,0,0.261054,-559.873,-0.183885)">
                <g transform="matrix(48,0,0,48,5461.07,62.9417)">
                    <path d="M0.077,-0L0.077,-0.698L0.229,-0.698L0.229,-0.135L0.495,-0.135L0.495,-0L0.077,-0Z" style="fill:white;fill-rule:nonzero;"/>
                </g>
                <g transform="matrix(48,0,0,48,5483.63,62.9417)">
                    <path d="M0.282,0.012C0.243,0.012 0.209,0.006 0.179,-0.007C0.148,-0.02 0.123,-0.038 0.102,-0.062C0.081,-0.086 0.064,-0.115 0.053,-0.149C0.042,-0.183 0.036,-0.221 0.036,-0.263C0.036,-0.305 0.042,-0.343 0.053,-0.377C0.064,-0.411 0.081,-0.44 0.102,-0.464C0.123,-0.487 0.148,-0.505 0.179,-0.518C0.209,-0.531 0.243,-0.537 0.282,-0.537C0.321,-0.537 0.355,-0.531 0.386,-0.518C0.416,-0.505 0.442,-0.487 0.463,-0.464C0.484,-0.44 0.5,-0.411 0.511,-0.377C0.522,-0.343 0.528,-0.305 0.528,-0.263C0.528,-0.221 0.522,-0.183 0.511,-0.149C0.5,-0.115 0.484,-0.086 0.463,-0.062C0.442,-0.038 0.416,-0.02 0.386,-0.007C0.355,0.006 0.321,0.012 0.282,0.012ZM0.282,-0.105C0.311,-0.105 0.334,-0.114 0.35,-0.132C0.366,-0.15 0.374,-0.176 0.374,-0.209L0.374,-0.316C0.374,-0.349 0.366,-0.375 0.35,-0.393C0.334,-0.411 0.311,-0.42 0.282,-0.42C0.253,-0.42 0.23,-0.411 0.214,-0.393C0.198,-0.375 0.19,-0.349 0.19,-0.316L0.19,-0.209C0.19,-0.176 0.198,-0.15 0.214,-0.132C0.23,-0.114 0.253,-0.105 0.282,-0.105Z" style="fill:white;fill-rule:nonzero;"/>
                </g>
                <g transform="matrix(48,0,0,48,5508.3,62.9417)">
                    <path d="M0.555,0.038C0.555,0.066 0.55,0.091 0.541,0.112C0.531,0.133 0.515,0.151 0.493,0.166C0.471,0.181 0.442,0.193 0.406,0.2C0.369,0.208 0.324,0.212 0.271,0.212C0.226,0.212 0.187,0.209 0.156,0.203C0.124,0.198 0.098,0.19 0.079,0.179C0.059,0.169 0.045,0.156 0.035,0.141C0.027,0.126 0.022,0.109 0.022,0.09C0.022,0.061 0.031,0.038 0.048,0.021C0.065,0.004 0.089,-0.006 0.12,-0.01L0.12,-0.021C0.095,-0.026 0.076,-0.037 0.063,-0.054C0.05,-0.071 0.044,-0.09 0.044,-0.113C0.044,-0.127 0.047,-0.139 0.053,-0.15C0.058,-0.16 0.066,-0.169 0.075,-0.177C0.084,-0.184 0.094,-0.191 0.106,-0.195C0.118,-0.2 0.13,-0.204 0.142,-0.206L0.142,-0.21C0.11,-0.225 0.086,-0.245 0.071,-0.271C0.056,-0.296 0.048,-0.326 0.048,-0.36C0.048,-0.413 0.067,-0.456 0.103,-0.489C0.141,-0.521 0.197,-0.537 0.273,-0.537C0.308,-0.537 0.337,-0.534 0.362,-0.527L0.362,-0.547C0.362,-0.575 0.369,-0.595 0.383,-0.608C0.396,-0.62 0.416,-0.626 0.441,-0.626L0.524,-0.626L0.524,-0.516L0.408,-0.516L0.408,-0.51C0.439,-0.495 0.461,-0.475 0.476,-0.45C0.491,-0.424 0.498,-0.394 0.498,-0.36C0.498,-0.307 0.48,-0.265 0.443,-0.234C0.406,-0.202 0.349,-0.186 0.273,-0.186C0.239,-0.186 0.208,-0.19 0.18,-0.197C0.165,-0.187 0.157,-0.173 0.157,-0.155C0.157,-0.142 0.162,-0.133 0.172,-0.126C0.181,-0.118 0.197,-0.115 0.22,-0.115L0.372,-0.115C0.436,-0.115 0.483,-0.102 0.511,-0.075C0.541,-0.048 0.555,-0.011 0.555,0.038ZM0.416,0.058C0.416,0.043 0.41,0.031 0.398,0.023C0.386,0.015 0.365,0.011 0.335,0.011L0.155,0.011C0.148,0.018 0.143,0.025 0.141,0.033C0.138,0.042 0.136,0.05 0.136,0.058C0.136,0.077 0.144,0.091 0.161,0.1C0.178,0.109 0.206,0.114 0.246,0.114L0.306,0.114C0.346,0.114 0.374,0.109 0.391,0.1C0.408,0.091 0.416,0.077 0.416,0.058ZM0.273,-0.284C0.302,-0.284 0.324,-0.29 0.339,-0.302C0.353,-0.315 0.36,-0.332 0.36,-0.356L0.36,-0.367C0.36,-0.391 0.353,-0.408 0.339,-0.421C0.324,-0.433 0.302,-0.439 0.273,-0.439C0.244,-0.439 0.222,-0.433 0.207,-0.421C0.193,-0.408 0.186,-0.391 0.186,-0.367L0.186,-0.356C0.186,-0.332 0.193,-0.315 0.207,-0.302C0.222,-0.29 0.244,-0.284 0.273,-0.284Z" style="fill:white;fill-rule:nonzero;"/>
                </g>
                <g transform="matrix(48,0,0,48,5532.11,62.9417)">
                    <path d="M0.282,0.012C0.243,0.012 0.209,0.006 0.179,-0.007C0.148,-0.02 0.123,-0.038 0.102,-0.062C0.081,-0.086 0.064,-0.115 0.053,-0.149C0.042,-0.183 0.036,-0.221 0.036,-0.263C0.036,-0.305 0.042,-0.343 0.053,-0.377C0.064,-0.411 0.081,-0.44 0.102,-0.464C0.123,-0.487 0.148,-0.505 0.179,-0.518C0.209,-0.531 0.243,-0.537 0.282,-0.537C0.321,-0.537 0.355,-0.531 0.386,-0.518C0.416,-0.505 0.442,-0.487 0.463,-0.464C0.484,-0.44 0.5,-0.411 0.511,-0.377C0.522,-0.343 0.528,-0.305 0.528,-0.263C0.528,-0.221 0.522,-0.183 0.511,-0.149C0.5,-0.115 0.484,-0.086 0.463,-0.062C0.442,-0.038 0.416,-0.02 0.386,-0.007C0.355,0.006 0.321,0.012 0.282,0.012ZM0.282,-0.105C0.311,-0.105 0.334,-0.114 0.35,-0.132C0.366,-0.15 0.374,-0.176 0.374,-0.209L0.374,-0.316C0.374,-0.349 0.366,-0.375 0.35,-0.393C0.334,-0.411 0.311,-0.42 0.282,-0.42C0.253,-0.42 0.23,-0.411 0.214,-0.393C0.198,-0.375 0.19,-0.349 0.19,-0.316L0.19,-0.209C0.19,-0.176 0.198,-0.15 0.214,-0.132C0.23,-0.114 0.253,-0.105 0.282,-0.105Z" style="fill:white;fill-rule:nonzero;"/>
                </g>
            </g>
        </g>
    </g>
</svg>
