<svg width="100" height="100" viewBox="0 0 100 100" fill="none" xmlns="http://www.w3.org/2000/svg">
<path d="M31.5011 70.2688C30.3572 70.6191 28.1429 71.4683 28.4369 72.0628M64.2757 73.1896C64.504 72.358 63.2056 71.7976 61.6933 71.3956" stroke="black" stroke-width="2"/>
<path d="M30.2267 16.3342C29.3013 16.3194 29.1046 17.0547 29.0928 17.7929L29.0633 19.6386C29.0491 20.5245 30.1577 20.6407 30.7138 20.5881L63.8374 21.1185C64.7626 21.1334 64.5983 19.8384 64.6219 18.3619C64.6408 17.1807 64.1521 16.8775 63.9054 16.8735L30.2267 16.3342Z" stroke="black" stroke-width="2"/>
<path d="M31.5606 71.7393C31.5724 71.001 31.6796 68.9351 32.0135 66.5774C32.4309 63.6302 33.5808 60.2338 34.7176 58.5905C36.6496 55.798 38.6528 54.8295 41.4073 52.1127C44.1619 49.3959 46.4022 46.5002 46.2438 44.8362C46.0853 43.1721 45.3599 42.2374 43.9091 40.3681C42.4583 38.4987 37.8794 35.4715 34.9748 31.9174C32.6511 29.074 32.2763 23.1973 32.3794 20.6143L62.172 21.0914C62.022 22.7506 61.641 26.5106 61.3165 28.2777C60.911 30.4866 58.8193 33.9607 56.5692 35.7708C54.319 37.5809 51.0559 40.1505 49.8158 41.3857C48.9771 42.2212 47.542 44.6724 48.0647 46.7115C48.5873 48.7506 51.1336 51.5606 53.1485 52.8851C55.1633 54.2097 58.4469 57.2161 59.8859 59.8238C61.3249 62.4314 61.6063 67.9743 61.5856 69.2663C61.5699 70.2512 61.5455 71.7724 61.2029 72.6799" stroke="black" stroke-width="2"/>
<path d="M27.9963 77.5273C28.0011 77.232 28.2631 72.0944 28.412 71.8738C28.5608 71.6531 64.1896 72.546 64.3053 72.8178C64.4211 73.0896 64.5927 77.9916 64.5927 77.9916C63.6761 79.7492 59.8733 79.8852 58.0865 79.7335C51.9172 79.6963 38.6911 79.5706 35.1405 79.3661C30.7023 79.1104 27.9904 77.8964 27.9963 77.5273Z" stroke="black" stroke-width="2"/>
<path fill-rule="evenodd" clip-rule="evenodd" d="M28.0185 77.1689C28.005 77.4435 27.997 77.6284 27.9962 77.6777C27.9903 78.0469 30.7022 79.2608 35.1404 79.5165C38.691 79.7211 51.9171 79.8467 58.0864 79.884C59.8732 80.0357 63.676 79.8996 64.5926 78.142C64.5926 78.142 64.5241 76.1859 64.4445 74.6765C65.8916 74.8676 67.2592 75.0935 68.6204 75.3368C77.0245 76.8388 76.5372 80.1179 71.2473 82.1801C65.9574 84.2423 48.3124 83.6144 41.4603 82.6166C40.3454 82.4542 39.3193 82.3175 38.3682 82.1908C33.2552 81.5094 30.3095 81.1169 27.3919 78.5858C27.1796 78.0483 27.428 77.579 28.0185 77.1689Z" fill="black"/>
<path d="M39.6426 34.012C40.3847 33.9009 41.5401 33.4145 43.326 32.8523C45.5584 32.1496 47.184 31.6957 49.4521 31.732C52.234 31.7765 54.524 32.4619 57.4538 34.7717C54.6177 37.5113 50.9126 39.9637 49.4705 41.4799C48.7018 42.2883 48.0413 43.5458 48.0302 44.2419C48.0114 45.4163 47.8972 46.6611 47.6234 47.1982L46.6279 47.1982C46.3359 47.2047 46.058 47.2102 45.8547 47.1982C45.6227 46.7223 46.318 45.6148 46.2771 44.736C46.063 43.5722 45.0507 41.1897 41.3232 38.0422L37.778 34.7819L39.6426 34.012Z" fill="black"/>
<path d="M45.8547 47.1982C45.6227 46.7223 46.318 45.6148 46.2771 44.736C46.063 43.5722 45.0507 41.1897 41.3232 38.0422L37.778 34.7819L39.6426 34.012C40.3847 33.9009 41.5401 33.4145 43.326 32.8523C45.5584 32.1496 47.184 31.6957 49.4521 31.732C52.234 31.7765 54.524 32.4619 57.4538 34.7717C54.6177 37.5113 50.9126 39.9637 49.4705 41.4799C48.7018 42.2883 48.0413 43.5458 48.0302 44.2419C48.0114 45.4163 47.8972 46.6611 47.6234 47.1982M45.8547 47.1982C46.2985 47.2245 47.0982 47.167 47.6234 47.1982M45.8547 47.1982L47.6234 47.1982" stroke="black" stroke-width="2"/>
</svg>
