<svg width="100" height="100" viewBox="0 0 100 100" fill="none" xmlns="http://www.w3.org/2000/svg">
<path d="M24.1772 41.8018C24.0538 49.4376 23.8893 57.0735 23.7659 64.7094C23.7339 66.6139 23.7516 71.4815 23.761 73.55C23.7635 74.0842 24.1692 74.5197 24.703 74.5411C29.8832 74.7487 55.0685 75.7352 63.1353 75.6237C66.2641 75.6237 74.9058 73.4059 78.3505 72.4874C79.2106 72.2581 79.8024 71.4846 79.8113 70.5945C79.8228 69.4378 79.8365 67.9034 79.8365 67.0916C79.8365 60.5762 79.7953 56.285 79.7953 49.7696" stroke="black" stroke-width="2" stroke-miterlimit="10"/>
<path fill-rule="evenodd" clip-rule="evenodd" d="M56.0084 75.5635C58.9216 75.6213 61.4169 75.6473 63.1353 75.6236C66.264 75.6236 74.9057 73.4058 78.3505 72.4873C79.2106 72.2579 79.8023 71.4845 79.8112 70.5944C79.8143 70.2862 79.8175 69.9513 79.8206 69.6103C85.4092 70.6382 89.6591 71.9815 88.8255 73.673C86.0801 76.6977 78.7188 76.6836 69.1232 76.6652C68.3636 76.6637 67.59 76.6622 66.8036 76.6622C63.4245 76.6622 59.7345 76.2232 56.0084 75.5635Z" fill="black"/>
<path d="M10.7459 41.6057C9.89642 40.7527 25.7089 31.136 25.7089 31.136C25.7089 31.136 30.7177 30.8454 34.2555 31.2189C43.7172 32.2979 53.2611 32.2564 62.7228 31.1359C60.09 34.6634 52.6852 39.1038 52.6852 39.1038C52.6852 39.1038 47.188 43.0433 45.2957 43.0018C33.4069 43.0018 11.5954 42.4587 10.7459 41.6057Z" stroke="black" stroke-width="2" stroke-miterlimit="10"/>
<path d="M63.7107 30.9287C64.5746 32.8791 65.9982 34.8113 67.5365 37.9836C68.9525 41.7046 68.9115 42.5252 70.5395 46.8644C70.663 47.2794 72.3496 50.6409 72.6376 50.8899C72.9667 51.1388 73.378 51.0974 73.7894 51.0144C78.1911 50.1014 82.634 49.2299 87.0357 48.3169C87.2414 48.2754 87.4471 48.2339 87.5705 48.0679C87.8585 47.6944 87.5705 47.1549 87.3237 46.7399C84.5675 42.839 83.2099 37.5271 82.0169 32.7131C81.8524 32.0077 81.6056 31.2607 81.0708 30.8872C80.6183 30.5967 80.0835 30.5967 79.5487 30.5967C73.8717 30.8042 69.0997 30.2647 63.4639 31.0117" stroke="black" stroke-width="2" stroke-miterlimit="10"/>
<path d="M62.7231 31.1367L62.8877 75.624" stroke="black" stroke-width="2" stroke-miterlimit="10"/>
<path d="M70.6697 51.701C69.1692 50.5609 63.4644 32.7207 63.4644 32.7207L65.5852 33.4298L73.7785 52.0635C73.7785 52.0635 72.1703 52.8411 70.6697 51.701Z" fill="black"/>
<path d="M49.744 68.6102L57.3676 68.61" stroke="black" stroke-width="2" stroke-linecap="round"/>
<path d="M49.744 64.8797L57.3676 64.8796" stroke="black" stroke-width="2" stroke-linecap="round"/>
<path d="M25.5509 31.0745L52.3524 28.0684L81.0357 30.6882" stroke="black" stroke-width="2" stroke-miterlimit="10"/>
<path d="M52.3847 28.6211L35.2248 30.3707L42.8628 31.3434H52.3847V28.6211Z" fill="black"/>
</svg>
