<svg width="100" height="100" viewBox="0 0 100 100" fill="none" xmlns="http://www.w3.org/2000/svg">
<path d="M26.3354 63.1219C26.3355 64.8539 26.2172 75.3202 26.3284 80.3846C26.3325 80.5715 26.441 80.7363 26.609 80.818L38.3275 86.5163C38.9933 86.8401 39.7678 86.3563 39.7652 85.6159C39.7429 79.4535 39.7199 69.0697 39.7713 66.7048C39.8416 63.4732 40.1928 58.3949 40.1928 55.9562V48.4392V35.7235C36.0714 33.6629 27.6739 29.5135 27.0557 29.4011C26.2829 29.2606 26.3354 37.7862 26.3355 40.5879C26.3356 42.9326 26.3354 57.3256 26.3354 63.1219Z" stroke="black" stroke-width="2"/>
<path d="M38.9249 86.7069C43.5849 85.3018 54.7352 82.9335 56.4212 82.6526C57.8274 82.4182 62.0681 81.3857 64.9858 80.6554C65.8938 80.4281 66.5178 79.6019 66.5023 78.6659C66.4004 72.5363 66.5374 62.1275 66.5374 59.329C66.5374 55.1461 66.5374 45.9809 66.5374 45.6296C66.5374 45.3508 66.5374 34.9042 66.5374 29.595C66.5374 29.5306 66.4774 29.4858 66.4146 29.5005L40.4739 35.5834" stroke="black" stroke-width="2"/>
<path d="M27.2661 29.4014C27.7579 29.3309 38.366 27.1536 40.6843 26.8021C43.0027 26.4506 47.7532 25.4163 49.0763 25.1158C50.8753 24.7073 53.3297 23.7809 53.962 23.9917C54.4678 24.1603 56.1867 24.8114 56.9828 25.1158" stroke="black" stroke-width="2"/>
<path d="M60.4258 26.7314C62.4163 27.4106 66.4113 28.9094 66.4675 29.4712" stroke="black" stroke-width="2"/>
<path d="M34.6431 32.7738C34.9944 32.7035 37.4532 32.0015 39.4905 31.7202C41.5278 31.439 45.5322 30.4555 46.4455 30.1745C47.1761 29.9496 53.3068 28.2542 56.2808 27.4346" stroke="black" stroke-width="2"/>
<path d="M27.6877 29.9629C28.4372 31.7661 30.0625 35.7378 30.5682 37.1989C31.2005 39.0253 31.9986 41.5366 32.2296 42.2605C32.5645 43.3099 33.2854 45.8071 33.831 45.692C34.3766 45.5768 36.5537 40.7254 37.1719 39.9386C37.7901 39.1518 39.5839 37.0349 40.4035 36.0747" stroke="black" stroke-width="2"/>
<path d="M33.7323 32.7734C33.8466 35.2792 34.0067 40.5577 33.7323 41.6254C33.4579 42.6931 33.2876 43.8499 33.2368 44.2948" stroke="black" stroke-width="2"/>
<path d="M51.4584 48.7297C51.9971 48.1632 52.7564 48.42 53.0687 48.6192C54.6428 47.9819 55.2356 49.7278 55.7 51.417C56.1644 53.1062 58.1185 55.4827 60.1239 58.9527C62.1293 62.4226 60.1019 64.9291 59.4243 66.2995C58.7468 67.6699 58.4563 69.289 56.058 69.3369C53.7216 69.3835 53.2905 69.6204 51.919 69.9463C50.5475 70.2721 49.1913 69.0082 47.6028 66.5356C46.0143 64.0631 46.6214 60.5793 47.299 59.2089C47.9765 57.8385 49.1651 55.5725 49.7636 53.4132C50.3621 51.2538 50.7851 49.4378 51.4584 48.7297Z" stroke="black" stroke-width="2"/>
<path d="M53.2668 46.7024C52.7472 46.926 51.8118 47.4609 52.2267 47.811C52.7453 48.2486 53.1292 47.9656 53.2972 47.3292C53.4653 46.6927 53.561 43.5477 54.2234 41.8295C54.7533 40.455 55.5423 39.6388 55.8706 39.4025" stroke="black" stroke-width="2"/>
<path d="M53.9114 48.3679C59.0079 51.1712 59.6385 45.7524 60.3995 43.7726C59.7196 43.6955 58.0121 43.6741 56.6214 44.2055C55.2307 44.7369 54.0827 47.1641 53.7494 48.2204C53.7622 48.2743 53.8098 48.3463 53.8973 48.2035C54.0067 48.0249 54.3863 47.2177 55.017 47.0126" stroke="black" stroke-width="2"/>
<path d="M55.6811 87.1515C51.2886 87.3767 43.1745 86.9403 39.772 87.1515L66.2404 80.3232C67.2025 80.4406 69.549 80.7456 71.2385 81.0272C75.6373 81.7603 72.4348 83.1382 71.2385 83.6317C70.5022 83.9354 61.1718 86.87 55.6811 87.1515Z" fill="black" stroke="black" stroke-width="2"/>
<path d="M62.4705 18.2865L60.1221 28.0433C59.0245 29.4006 56.73 27.8814 56.4438 27.6406C57.2117 24.5093 58.582 17.6783 59.1987 15.7177C60.1221 12.7822 62.124 12.9176 63.208 12.7822L73.7759 13.8661C74.1372 13.8811 74.8056 14.1822 74.5889 15.2661C74.3721 16.35 73.3845 17.2666 72.9179 17.2967C71.5028 17.0708 68.0223 16.5559 65.4209 16.303C62.8196 16.0501 62.606 17.5187 62.4705 18.2865Z" stroke="black" stroke-width="2"/>
</svg>
