<svg width="100" height="100" viewBox="0 0 100 100" fill="none" xmlns="http://www.w3.org/2000/svg">
<path fill-rule="evenodd" clip-rule="evenodd" d="M35.6978 81.2326C35.622 81.4596 35.6251 81.7026 35.7176 81.9629C38.3401 84.6154 40.9473 85.0736 45.4727 85.869C46.3145 86.017 47.2226 86.1766 48.2096 86.3642C54.2758 87.5171 69.8605 88.4934 74.4904 86.4765C79.1203 84.4595 79.4887 81.1034 72.0433 79.4039C70.7803 79.1156 69.5115 78.8467 68.1631 78.6162C65.5377 82.5055 61.1505 82.7865 54.383 83.22C53.3074 83.2889 52.1716 83.3616 50.9733 83.4533C45.1414 83.9017 39.6437 84.3231 35.6978 81.2326Z" fill="black"/>
<path d="M72.537 51.3487C72.8524 52.988 73.1267 68.506 68.8693 76.7772C65.9917 82.4404 62.9169 82.8875 53.4562 83.5954C46.5183 84.117 37.5305 83.7072 33.628 78.4166C31.7358 75.8085 31.1445 72.8279 30.5138 69.6982C28.8581 61.2407 29.7796 51.3486 29.7796 51.3486" stroke="black" stroke-width="2" stroke-linejoin="round"/>
<path d="M38.5936 35.0716C36.719 35.7294 35.4957 35.6875 34.8494 35.008C34.0667 32.7704 34.0764 31.6279 33.2477 27.2996C32.7117 24.5005 31.7853 21.9619 28.941 22.4147C27.4917 22.5 25.9801 24.8726 26.8742 29.5776C28.0534 35.7824 28.4699 39.9003 31.9974 41.8366C34.2298 43.0619 37.334 43.4939 40.1617 42.8448" stroke="black" stroke-width="2" stroke-linejoin="round"/>
<path fill-rule="evenodd" clip-rule="evenodd" d="M41.1993 47.2111C38.7047 47.436 36.566 47.7662 34.8114 48.169C32.859 48.6172 31.3101 49.1711 30.2719 49.8172C29.7543 50.1393 29.296 50.5255 29.0004 50.9959C28.6861 51.4962 28.561 52.0922 28.7522 52.7042C28.9342 53.2961 29.3789 53.73 29.811 54.0409C30.2613 54.3649 30.8218 54.6437 31.4263 54.8873C32.6387 55.3758 34.1845 55.7836 35.7727 56.1148C38.2091 56.6229 40.8477 56.9714 42.7486 57.1439C43.5131 57.227 44.1781 57.2825 44.6861 57.3099C47.9723 57.4855 57.2618 57.2245 59.4365 57.0492L59.4379 57.0491C59.6498 57.0317 59.9523 57.0041 60.3242 56.965C61.7521 56.8461 64.9831 56.502 67.8406 55.8202C69.3974 55.4487 70.947 54.9539 72.0303 54.2833C72.5279 53.9752 73.0082 53.5814 73.319 53.0712H73.4962C73.4962 52.9678 73.4895 52.8666 73.4767 52.7676C73.7307 52.181 73.7266 51.5372 73.4416 50.9067L73.44 50.9034C73.1006 50.1597 72.3661 49.6674 71.6502 49.3236C70.8952 48.9611 69.9523 48.6668 68.9242 48.4226C66.8621 47.9327 64.2914 47.6062 61.8081 47.3865C60.7605 47.2938 59.722 47.2196 58.7354 47.1602C58.5628 48.68 58.3769 50.0898 58.1902 51.3433H42.3845C42.2795 51.1326 41.8081 49.5691 41.1993 47.2111Z" fill="black"/>
<path d="M58.1902 51.7231C59.821 40.7743 61.389 17.895 54.6151 13.9685C46.1478 9.06042 38.4331 13.2134 37.6804 23.0296C36.9278 32.8458 42.0082 50.968 42.3845 51.7231" stroke="black" stroke-width="2" stroke-linejoin="round"/>
<path d="M55.6746 16.2897L59.6013 10.9991" stroke="black" stroke-width="2" stroke-linecap="round" stroke-linejoin="round"/>
<path d="M59.6013 25.5537L63.3939 23.4678" stroke="black" stroke-width="2" stroke-linecap="round" stroke-linejoin="round"/>
<path d="M49.2959 22.7094L51.1922 19.1064" stroke="black" stroke-width="2" stroke-linecap="round" stroke-linejoin="round"/>
<path d="M39.1223 16.2893L36.4675 12.876" stroke="black" stroke-width="2" stroke-linecap="round" stroke-linejoin="round"/>
<path d="M43.673 28.967L41.3975 25.5537" stroke="black" stroke-width="2" stroke-linecap="round" stroke-linejoin="round"/>
<path d="M52.6404 35.4154L55.6744 31.8125" stroke="black" stroke-width="2" stroke-linecap="round" stroke-linejoin="round"/>
<path d="M23.5617 27.2588L26.7285 29.3617" stroke="black" stroke-width="2" stroke-linecap="round" stroke-linejoin="round"/>
<path d="M26.071 20.9082L27.2435 22.8666" stroke="black" stroke-width="2" stroke-linecap="round" stroke-linejoin="round"/>
<path d="M29.9568 29.5186L30.9145 32.2269" stroke="black" stroke-width="2" stroke-linecap="round" stroke-linejoin="round"/>
</svg>
