<?xml version="1.0" standalone="no"?>
<!DOCTYPE svg PUBLIC "-//W3C//DTD SVG 1.1//EN" "http://www.w3.org/Graphics/SVG/1.1/DTD/svg11.dtd">
<!--Generator: Xara Designer (www.xara.com), SVG filter version: 6.1.0.16-->
<svg stroke-width="0.501" stroke-linejoin="bevel" fill-rule="evenodd" xmlns:xlink="http://www.w3.org/1999/xlink" xmlns="http://www.w3.org/2000/svg" version="1.1" overflow="visible" width="90pt" height="39.75pt" viewBox="0 0 90 39.75">
 <defs>
  <linearGradient id="LinearGradient" gradientUnits="userSpaceOnUse" x1="0" y1="0" x2="0" y2="-17.04" gradientTransform="translate(79.615 33.653)">
   <stop offset="0" stop-color="#662d91"/>
   <stop offset="1" stop-color="#da1c5c"/>
  </linearGradient>
 </defs>
 <g id="Document" fill="none" stroke="black" font-family="Times New Roman" font-size="16" transform="scale(1 -1)">
  <g id="Spread" transform="translate(0 -39.75)">
   <g id="Layer 1">
    <g id="Group" stroke-linejoin="miter" stroke="none" stroke-width="0.404" stroke-miterlimit="79.8403193612775">
     <g id="Group_1" fill="#3a3a3a">
      <path d="M 8.566,18.135 C 8.135,18.135 7.399,18.222 7.399,17.552 C 7.399,17.206 7.658,17.076 7.961,16.946 L 13.149,14.59 C 14.491,13.984 15.182,13.14 15.182,11.649 C 15.182,9.551 13.755,8.557 11.767,8.557 L 8.566,8.557 C 7.486,8.557 6.75,8.6 5.971,9.206 C 5.583,9.508 5.02,9.897 5.02,10.417 C 5.02,11.001 5.519,11.454 6.102,11.454 C 6.425,11.454 6.664,11.347 6.902,11.087 C 7.269,10.676 7.918,10.633 8.566,10.633 L 11.377,10.633 C 12.112,10.633 13.107,10.569 13.107,11.779 C 13.107,12.276 12.501,12.6 12.026,12.815 L 7.138,15.043 C 5.994,15.562 5.324,16.233 5.324,17.573 C 5.324,19.215 6.621,20.21 8.177,20.21 L 11.722,20.21 C 12.868,20.21 13.345,20.146 14.123,19.498 C 14.512,19.174 14.944,18.913 14.944,18.329 C 14.944,17.747 14.446,17.292 13.885,17.292 C 13.496,17.292 13.258,17.444 12.998,17.724 C 12.652,18.092 12.285,18.135 11.722,18.135 L 8.566,18.135 Z" marker-start="none" marker-end="none"/>
      <path d="M 29.373,13.055 C 29.373,11.564 29.265,11.001 28.055,10.05 L 26.8,9.055 C 26.368,8.707 25.698,8.125 25.137,8.125 L 23.731,8.125 C 22.8,8.125 22.369,8.73 21.699,9.357 L 21.287,9.746 L 21.287,5.575 C 21.287,4.86 21.136,4.147 20.25,4.147 C 19.364,4.147 19.211,4.86 19.211,5.575 L 19.211,18.675 C 19.211,19.411 19.298,20.21 20.25,20.21 C 21.094,20.21 21.287,19.542 21.287,18.849 L 21.287,18.59 L 21.699,18.956 C 22.24,19.433 23.061,20.21 23.644,20.21 L 25.071,20.21 C 25.569,20.21 26.239,19.693 26.8,19.26 L 28.055,18.287 C 29.265,17.335 29.373,16.752 29.373,15.281 L 29.373,13.055 M 27.298,15.562 C 27.298,15.951 27.191,16.189 26.866,16.47 L 25.309,17.769 C 25.114,17.941 24.877,18.135 24.595,18.135 L 24.055,18.135 C 23.753,18.135 23.385,17.747 23.168,17.529 L 21.871,16.298 C 21.439,15.886 21.287,15.649 21.287,15.194 L 21.287,13.162 C 21.287,12.861 21.375,12.47 21.59,12.276 L 23.168,10.784 C 23.47,10.482 23.795,10.2 24.055,10.2 L 24.595,10.2 C 24.877,10.2 25.114,10.395 25.309,10.569 L 26.866,11.866 C 27.191,12.147 27.298,12.385 27.298,12.774 L 27.298,15.562 Z" marker-start="none" marker-end="none"/>
      <path d="M 36.371,18.135 C 35.765,18.135 34.944,18.266 34.944,19.174 C 34.944,20.059 35.68,20.21 36.371,20.21 L 39.225,20.21 C 40.305,20.21 41.085,20.102 41.906,19.281 C 42.707,18.481 42.814,17.854 42.836,16.816 L 43.052,9.768 C 43.074,9.162 42.77,8.557 42.079,8.557 C 41.538,8.557 40.998,9.011 41.02,9.595 L 39.593,8.86 C 39.008,8.557 38.987,8.557 38.317,8.557 L 36.328,8.557 C 35.399,8.557 34.728,8.666 33.971,9.293 C 33.107,10.006 32.89,10.761 32.89,11.843 L 32.89,12.752 C 32.89,13.746 33.128,14.373 33.907,15.065 C 34.621,15.692 35.42,15.844 36.328,15.844 L 40.781,15.844 L 40.781,16.319 C 40.781,17.875 40.436,18.135 38.944,18.135 L 36.371,18.135 M 36.35,13.767 C 35.788,13.767 34.966,13.616 34.966,12.861 L 34.966,11.475 C 34.966,10.784 35.809,10.633 36.307,10.633 L 38.599,10.633 L 40.89,11.822 L 40.89,12.276 C 40.89,13.422 40.566,13.767 39.42,13.767 L 36.35,13.767 Z" marker-start="none" marker-end="none"/>
      <path d="M 46.702,15.388 C 46.702,16.665 46.94,17.292 47.933,18.114 L 49.468,19.389 C 50.442,20.19 50.938,20.21 52.15,20.21 L 55.437,20.21 C 56.128,20.21 56.862,20.059 56.862,19.174 C 56.862,18.266 56.041,18.135 55.437,18.135 L 51.782,18.135 C 51.37,18.135 50.961,17.92 50.593,17.616 L 49.339,16.557 C 49.015,16.298 48.777,16.081 48.777,15.672 L 48.777,13.097 C 48.777,12.687 49.015,12.47 49.339,12.212 L 50.593,11.152 C 50.961,10.848 51.37,10.633 51.782,10.633 L 55.437,10.633 C 56.041,10.633 56.862,10.503 56.862,9.595 C 56.862,8.707 56.128,8.557 55.437,8.557 L 52.15,8.557 C 50.938,8.557 50.442,8.579 49.468,9.378 L 47.933,10.654 C 46.94,11.475 46.702,12.102 46.702,13.38 L 46.702,15.388 Z" marker-start="none" marker-end="none"/>
      <path d="M 63.973,8.557 C 63.109,8.557 62.764,8.557 62.114,9.12 L 61.227,9.897 C 60.406,10.633 60.168,11.109 60.168,12.234 L 60.168,16.233 C 60.168,17.335 60.32,17.984 61.184,18.719 L 61.92,19.346 C 62.892,20.19 63.368,20.21 64.212,20.21 L 66.114,20.21 C 67.13,20.21 67.606,20.102 68.406,19.455 L 69.249,18.784 C 70.2,18.028 70.33,17.228 70.33,16.081 L 70.33,14.416 C 70.33,13.227 70.135,12.881 68.903,12.881 L 62.243,12.881 L 62.243,12.189 C 62.243,11.994 62.395,11.736 62.547,11.584 L 63.066,11.022 C 63.347,10.72 63.757,10.633 64.449,10.633 L 68.903,10.633 C 69.596,10.633 70.33,10.482 70.33,9.595 C 70.33,8.687 69.509,8.557 68.903,8.557 L 63.973,8.557 M 62.243,14.958 L 68.255,14.958 L 68.255,16.211 C 68.255,16.6 68.276,16.926 67.995,17.184 L 67.195,17.875 C 66.936,18.114 66.524,18.135 66.2,18.135 L 64.449,18.135 C 64.061,18.135 63.736,18.135 63.391,17.898 L 62.677,17.379 C 62.417,17.184 62.243,17.032 62.243,16.427 L 62.243,14.958 Z" marker-start="none" marker-end="none"/>
     </g>
     <g id="Group_2">
      <path d="M 79.616,12.982 L 71.65,25.289 L 79.616,37.599 L 87.581,25.289 L 79.616,12.982 Z" marker-start="none" marker-end="none" fill="url(#LinearGradient)"/>
      <mask id="TranspMask">
       <rect x="-10%" y="-10%" width="120%" height="120%" fill="#ffffff" stroke="none"/>
      </mask>
      <g id="Group_3" fill="#ffffff" mask="url(#TranspMask)">
       <path d="M 82.446,30.717 L 82.446,29.74 L 78.796,29.74 L 78.281,26.94 C 78.728,27.071 79.129,27.135 79.488,27.135 C 80.424,27.135 81.194,26.822 81.801,26.196 C 82.408,25.569 82.71,24.768 82.71,23.79 C 82.71,23.115 82.555,22.496 82.244,21.931 C 81.931,21.368 81.51,20.938 80.976,20.637 C 80.442,20.337 79.827,20.186 79.129,20.186 C 78.295,20.186 77.593,20.442 77.02,20.951 C 76.448,21.461 76.106,22.121 75.993,22.93 L 77.047,22.93 C 77.126,22.535 77.26,22.214 77.45,21.968 C 77.638,21.722 77.89,21.521 78.204,21.37 C 78.518,21.219 78.847,21.144 79.192,21.144 C 79.867,21.144 80.446,21.399 80.931,21.91 C 81.415,22.422 81.657,23.061 81.657,23.829 C 81.657,24.52 81.439,25.083 81,25.515 C 80.563,25.947 79.978,26.165 79.248,26.165 C 78.642,26.165 77.91,25.981 77.047,25.613 L 77.998,30.717 L 82.446,30.717 Z" marker-start="none" marker-end="none"/>
      </g>
     </g>
    </g>
   </g>
  </g>
 </g>
</svg>
