<svg xmlns="http://www.w3.org/2000/svg">
    <symbol id="check" viewBox="0 0 24 24">
        <path fill-rule="evenodd" clip-rule="evenodd" d="M20.5405 7.22476L9.58034 18.1849L3.4606 12.0652L4.87481 10.651L9.58034 15.3565L19.1263 5.81055L20.5405 7.22476Z"/>
    </symbol>
    <symbol id="x" viewBox="0 0 24 24">
        <path d="M12 10.5858L5.63605 4.2218L4.22183 5.63602L10.5858 12L4.22183 18.3639L5.63605 19.7782L12 13.4142L18.364 19.7782L19.7782 18.3639L13.4142 12L19.7782 5.63602L18.364 4.2218L12 10.5858Z"/>
    </symbol>
    <symbol id="info" viewBox="0 0 24 24">
        <path fill-rule="evenodd" clip-rule="evenodd" d="M4.5 12C4.5 7.85786 7.85786 4.5 12 4.5C16.1421 4.5 19.5 7.85786 19.5 12C19.5 16.1421 16.1421 19.5 12 19.5C7.85786 19.5 4.5 16.1421 4.5 12ZM12 3C7.02944 3 3 7.02944 3 12C3 16.9706 7.02944 21 12 21C16.9706 21 21 16.9706 21 12C21 7.02944 16.9706 3 12 3ZM13 8.875C13 9.42728 12.5523 9.875 12 9.875C11.4477 9.875 11 9.42729 11 8.875C11 8.32272 11.4477 7.875 12 7.875C12.5523 7.875 13 8.32272 13 8.875ZM12 10.875C12.4142 10.875 12.75 11.2108 12.75 11.625L12.75 16.125C12.75 16.5392 12.4142 16.875 12 16.875C11.5858 16.875 11.25 16.5392 11.25 16.125L11.25 11.625C11.25 11.2108 11.5858 10.875 12 10.875Z"/>
    </symbol>
    <symbol id="warning" viewBox="0 0 24 24">
        <path fill-rule="evenodd" clip-rule="evenodd" d="M10.9346 6.10086C11.4191 5.28588 12.599 5.28588 13.0835 6.10086L19.3268 16.6029C19.8222 17.4362 19.2217 18.4917 18.2524 18.4917H5.76568C4.79633 18.4917 4.19587 17.4362 4.69122 16.6029L10.9346 6.10086ZM14.3729 5.33435C13.307 3.54138 10.7111 3.54138 9.6452 5.33435L3.40185 15.8364C2.31209 17.6695 3.63311 19.9917 5.76568 19.9917H18.2524C20.385 19.9917 21.706 17.6695 20.6162 15.8364L14.3729 5.33435ZM12 14.0233C11.5858 14.0232 11.25 13.6875 11.25 13.2733L11.25 8.77325C11.25 8.35904 11.5858 8.02325 12 8.02325C12.4142 8.02325 12.75 8.35904 12.75 8.77325L12.75 13.2733C12.75 13.6875 12.4142 14.0233 12 14.0233ZM10.9982 16.0041C10.9982 15.4519 11.4463 15.0041 11.9991 15.0041C12.5519 15.0041 13 15.4519 13 16.0041C13 16.5564 12.5519 17.0041 11.9991 17.0041C11.4463 17.0041 10.9982 16.5564 10.9982 16.0041Z"/>
    </symbol>
</svg>