<svg xmlns="http://www.w3.org/2000/svg">
    <symbol id="file-plus" viewBox="0 0 24 24">
        <path d="M14 2H6C5.46957 2 4.96086 2.21071 4.58579 2.58579C4.21071 2.96086 4 3.46957 4 4V20C4 20.5304 4.21071 21.0391 4.58579 21.4142C4.96086 21.7893 5.46957 22 6 22H18C18.5304 22 19.0391 21.7893 19.4142 21.4142C19.7893 21.0391 20 20.5304 20 20V8L14 2Z" stroke-width="2" stroke-linecap="round" stroke-linejoin="round"/>
        <path d="M14 2V8H20" stroke-width="2" stroke-linecap="round" stroke-linejoin="round"/>
        <path d="M12 18V12"  stroke-width="2" stroke-linecap="round" stroke-linejoin="round"/>
        <path d="M9 15H15"  stroke-width="2" stroke-linecap="round" stroke-linejoin="round"/>
    </symbol>
    <symbol id="menu" viewBox="0 0 24 24">
        <path d="M3 12H21" stroke-width="2" stroke-linecap="round" stroke-linejoin="round"/>
        <path d="M3 6H21" stroke-width="2" stroke-linecap="round" stroke-linejoin="round"/>
        <path d="M3 18H21" stroke-width="2" stroke-linecap="round" stroke-linejoin="round"/>
    </symbol>
    <symbol id="chevron-right" viewBox="0 0 24 24">
        <path d="M9 18L15 12L9 6" stroke-width="2" stroke-linecap="round" stroke-linejoin="round"/>
    </symbol>
    <symbol id="chevron-down" viewBox="0 0 24 24">
        <path d="M6 9L12 15L18 9" stroke-width="2" stroke-linecap="round" stroke-linejoin="round"/>
    </symbol>
    <symbol id="chevron-left" viewBox="0 0 24 24">
        <path d="M15 18L9 12L15 6" stroke-width="2" stroke-linecap="round" stroke-linejoin="round"/>
    </symbol>
    <symbol id="plus" viewBox="0 0 24 24">
        <path d="M12 5V19" stroke-width="2" stroke-linecap="round" stroke-linejoin="round"/>
        <path d="M5 12H19" stroke-width="2" stroke-linecap="round" stroke-linejoin="round"/>
    </symbol>
    <symbol id="minus" viewBox="0 0 24 24">
        <path d="M5 12H19" stroke-width="2" stroke-linecap="round" stroke-linejoin="round"/>
    </symbol>
    <symbol id="check" viewBox="0 0 24 24">
        <path d="M20 6L9 17L4 12" stroke-width="2" stroke-linecap="round" stroke-linejoin="round"/>
    </symbol>
    <symbol id="save" viewBox="0 0 24 24">
        <path d="M19 21H5C4.46957 21 3.96086 20.7893 3.58579 20.4142C3.21071 20.0391 3 19.5304 3 19V5C3 4.46957 3.21071 3.96086 3.58579 3.58579C3.96086 3.21071 4.46957 3 5 3H16L21 8V19C21 19.5304 20.7893 20.0391 20.4142 20.4142C20.0391 20.7893 19.5304 21 19 21Z" stroke-width="2" stroke-linecap="round" stroke-linejoin="round"/>
        <path d="M17 21V13H7V21" stroke-width="2" stroke-linecap="round" stroke-linejoin="round"/>
        <path d="M7 3V8H15" stroke-width="2" stroke-linecap="round" stroke-linejoin="round"/>
    </symbol>
    <symbol id="refresh-cw" viewBox="0 0 24 24">
        <path d="M23 4V10H17" stroke-width="2" stroke-linecap="round" stroke-linejoin="round"/>
        <path d="M1 20V14H7" stroke-width="2" stroke-linecap="round" stroke-linejoin="round"/>
        <path d="M3.51 9C4.01717 7.56678 4.87913 6.2854 6.01547 5.27542C7.1518 4.26543 8.52547 3.55976 10.0083 3.22426C11.4911 2.88875 13.0348 2.93434 14.4952 3.35677C15.9556 3.77921 17.2853 4.56471 18.36 5.64L23 10M1 14L5.64 18.36C6.71475 19.4353 8.04437 20.2208 9.50481 20.6432C10.9652 21.0657 12.5089 21.1112 13.9917 20.7757C15.4745 20.4402 16.8482 19.7346 17.9845 18.7246C19.1209 17.7146 19.9828 16.4332 20.49 15" stroke-width="2" stroke-linecap="round" stroke-linejoin="round"/>
    </symbol>
    <symbol id="more-horizontal" viewBox="0 0 24 24">
        <path d="M12 13C12.5523 13 13 12.5523 13 12C13 11.4477 12.5523 11 12 11C11.4477 11 11 11.4477 11 12C11 12.5523 11.4477 13 12 13Z" stroke-width="2" stroke-linecap="round" stroke-linejoin="round"/>
        <path d="M19 13C19.5523 13 20 12.5523 20 12C20 11.4477 19.5523 11 19 11C18.4477 11 18 11.4477 18 12C18 12.5523 18.4477 13 19 13Z" stroke-width="2" stroke-linecap="round" stroke-linejoin="round"/>
        <path d="M5 13C5.55228 13 6 12.5523 6 12C6 11.4477 5.55228 11 5 11C4.44772 11 4 11.4477 4 12C4 12.5523 4.44772 13 5 13Z" stroke-width="2" stroke-linecap="round" stroke-linejoin="round"/>
    </symbol>
    <symbol id="more-vertical" viewBox="0 0 24 24">
        <path d="M12 13C12.5523 13 13 12.5523 13 12C13 11.4477 12.5523 11 12 11C11.4477 11 11 11.4477 11 12C11 12.5523 11.4477 13 12 13Z" stroke-width="2" stroke-linecap="round" stroke-linejoin="round"/>
        <path d="M12 6C12.5523 6 13 5.55228 13 5C13 4.44772 12.5523 4 12 4C11.4477 4 11 4.44772 11 5C11 5.55228 11.4477 6 12 6Z" stroke-width="2" stroke-linecap="round" stroke-linejoin="round"/>
        <path d="M12 20C12.5523 20 13 19.5523 13 19C13 18.4477 12.5523 18 12 18C11.4477 18 11 18.4477 11 19C11 19.5523 11.4477 20 12 20Z" stroke-width="2" stroke-linecap="round" stroke-linejoin="round"/>
    </symbol>
    <symbol id="x" viewBox="0 0 24 24">
        <path d="M18 6L6 18" stroke-width="2" stroke-linecap="round" stroke-linejoin="round"/>
        <path d="M6 6L18 18" stroke-width="2" stroke-linecap="round" stroke-linejoin="round"/>
    </symbol>
    <symbol id="phone-call"  viewBox="0 0 24 24">
        <path d="M15.05 5C16.0267 5.19057 16.9244 5.66826 17.6281 6.37194C18.3317 7.07561 18.8094 7.97326 19 8.95M15.05 1C17.0793 1.22544 18.9716 2.13417 20.4162 3.57701C21.8609 5.01984 22.772 6.91101 23 8.94M22 16.92V19.92C22.0011 20.1985 21.9441 20.4742 21.8325 20.7293C21.7209 20.9845 21.5573 21.2136 21.3521 21.4019C21.1468 21.5901 20.9046 21.7335 20.6407 21.8227C20.3769 21.9119 20.0974 21.9451 19.82 21.92C16.7428 21.5856 13.787 20.5341 11.19 18.85C8.77382 17.3147 6.72533 15.2662 5.18999 12.85C3.49997 10.2412 2.44824 7.27099 2.11999 4.18C2.095 3.90347 2.12787 3.62476 2.21649 3.36162C2.30512 3.09849 2.44756 2.85669 2.63476 2.65162C2.82196 2.44655 3.0498 2.28271 3.30379 2.17052C3.55777 2.05833 3.83233 2.00026 4.10999 2H7.10999C7.5953 1.99522 8.06579 2.16708 8.43376 2.48353C8.80173 2.79999 9.04207 3.23945 9.10999 3.72C9.23662 4.68007 9.47144 5.62273 9.80999 6.53C9.94454 6.88792 9.97366 7.27691 9.8939 7.65088C9.81415 8.02485 9.62886 8.36811 9.35999 8.64L8.08999 9.91C9.51355 12.4135 11.5864 14.4864 14.09 15.91L15.36 14.64C15.6319 14.3711 15.9751 14.1858 16.3491 14.1061C16.7231 14.0263 17.1121 14.0555 17.47 14.19C18.3773 14.5286 19.3199 14.7634 20.28 14.89C20.7658 14.9585 21.2094 15.2032 21.5265 15.5775C21.8437 15.9518 22.0122 16.4296 22 16.92Z" stroke-width="2" stroke-linecap="round" stroke-linejoin="round"/>
    </symbol>
    <symbol id="mail"  viewBox="0 0 24 24">
        <path d="M4 4H20C21.1 4 22 4.9 22 6V18C22 19.1 21.1 20 20 20H4C2.9 20 2 19.1 2 18V6C2 4.9 2.9 4 4 4Z" stroke-width="2" stroke-linecap="round" stroke-linejoin="round"/>
        <path d="M22 6L12 13L2 6" stroke-width="2" stroke-linecap="round" stroke-linejoin="round"/>
    </symbol>
    <symbol id="log-in"  viewBox="0 0 24 24">
        <path d="M15 3H19C19.5304 3 20.0391 3.21071 20.4142 3.58579C20.7893 3.96086 21 4.46957 21 5V19C21 19.5304 20.7893 20.0391 20.4142 20.4142C20.0391 20.7893 19.5304 21 19 21H15" stroke-width="2" stroke-linecap="round" stroke-linejoin="round"/>
        <path d="M10 17L15 12L10 7" stroke-width="2" stroke-linecap="round" stroke-linejoin="round"/>
        <path d="M15 12H3" stroke-width="2" stroke-linecap="round" stroke-linejoin="round"/>
    </symbol>
    <symbol id="log-out"  viewBox="0 0 24 24">
        <path d="M9 21H5C4.46957 21 3.96086 20.7893 3.58579 20.4142C3.21071 20.0391 3 19.5304 3 19V5C3 4.46957 3.21071 3.96086 3.58579 3.58579C3.96086 3.21071 4.46957 3 5 3H9" stroke-width="2" stroke-linecap="round" stroke-linejoin="round"/>
        <path d="M16 17L21 12L16 7" stroke-width="2" stroke-linecap="round" stroke-linejoin="round"/>
        <path d="M21 12H9" stroke-width="2" stroke-linecap="round" stroke-linejoin="round"/>
    </symbol>
    <symbol id="bell"  viewBox="0 0 24 24">
        <path d="M13.73 21C13.5542 21.3031 13.3018 21.5547 12.9982 21.7295C12.6946 21.9044 12.3504 21.9965 12 21.9965C11.6496 21.9965 11.3054 21.9044 11.0018 21.7295C10.6982 21.5547 10.4458 21.3031 10.27 21M22 17H2C2.79565 17 3.55871 16.6839 4.12132 16.1213C4.68393 15.5587 5 14.7956 5 14V9C5 7.14348 5.7375 5.36301 7.05025 4.05025C8.36301 2.7375 10.1435 2 12 2C13.8565 2 15.637 2.7375 16.9497 4.05025C18.2625 5.36301 19 7.14348 19 9V14C19 14.7956 19.3161 15.5587 19.8787 16.1213C20.4413 16.6839 21.2044 17 22 17Z" stroke-width="2" stroke-linecap="round" stroke-linejoin="round"/>
    </symbol>
    <symbol id="home"  viewBox="0 0 24 24">
        <path d="M3 9L12 2L21 9V20C21 20.5304 20.7893 21.0391 20.4142 21.4142C20.0391 21.7893 19.5304 22 19 22H5C4.46957 22 3.96086 21.7893 3.58579 21.4142C3.21071 21.0391 3 20.5304 3 20V9Z" stroke-width="2" stroke-linecap="round" stroke-linejoin="round"/>
        <path d="M9 22V12H15V22" stroke-width="2" stroke-linecap="round" stroke-linejoin="round"/>
    </symbol>
    <symbol id="check-square"  viewBox="0 0 24 24">
        <path d="M9 11L12 14L22 4" stroke-width="2" stroke-linecap="round" stroke-linejoin="round"/>
        <path d="M21 12V19C21 19.5304 20.7893 20.0391 20.4142 20.4142C20.0391 20.7893 19.5304 21 19 21H5C4.46957 21 3.96086 20.7893 3.58579 20.4142C3.21071 20.0391 3 19.5304 3 19V5C3 4.46957 3.21071 3.96086 3.58579 3.58579C3.96086 3.21071 4.46957 3 5 3H16" stroke-width="2" stroke-linecap="round" stroke-linejoin="round"/>
    </symbol>
    <symbol id="settings"  viewBox="0 0 24 24">
        <path d="M12 15C13.6569 15 15 13.6569 15 12C15 10.3431 13.6569 9 12 9C10.3431 9 9 10.3431 9 12C9 13.6569 10.3431 15 12 15Z" stroke-width="2" stroke-linecap="round" stroke-linejoin="round"/>
        <path d="M19.4 15C19.2669 15.3016 19.2272 15.6362 19.286 15.9606C19.3448 16.285 19.4995 16.5843 19.73 16.82L19.79 16.88C19.976 17.0657 20.1235 17.2863 20.2241 17.5291C20.3248 17.7719 20.3766 18.0322 20.3766 18.295C20.3766 18.5578 20.3248 18.8181 20.2241 19.0609C20.1235 19.3037 19.976 19.5243 19.79 19.71C19.6043 19.896 19.3837 20.0435 19.1409 20.1441C18.8981 20.2448 18.6378 20.2966 18.375 20.2966C18.1122 20.2966 17.8519 20.2448 17.6091 20.1441C17.3663 20.0435 17.1457 19.896 16.96 19.71L16.9 19.65C16.6643 19.4195 16.365 19.2648 16.0406 19.206C15.7162 19.1472 15.3816 19.1869 15.08 19.32C14.7842 19.4468 14.532 19.6572 14.3543 19.9255C14.1766 20.1938 14.0813 20.5082 14.08 20.83V21C14.08 21.5304 13.8693 22.0391 13.4942 22.4142C13.1191 22.7893 12.6104 23 12.08 23C11.5496 23 11.0409 22.7893 10.6658 22.4142C10.2907 22.0391 10.08 21.5304 10.08 21V20.91C10.0723 20.579 9.96512 20.258 9.77251 19.9887C9.5799 19.7194 9.31074 19.5143 9 19.4C8.69838 19.2669 8.36381 19.2272 8.03941 19.286C7.71502 19.3448 7.41568 19.4995 7.18 19.73L7.12 19.79C6.93425 19.976 6.71368 20.1235 6.47088 20.2241C6.22808 20.3248 5.96783 20.3766 5.705 20.3766C5.44217 20.3766 5.18192 20.3248 4.93912 20.2241C4.69632 20.1235 4.47575 19.976 4.29 19.79C4.10405 19.6043 3.95653 19.3837 3.85588 19.1409C3.75523 18.8981 3.70343 18.6378 3.70343 18.375C3.70343 18.1122 3.75523 17.8519 3.85588 17.6091C3.95653 17.3663 4.10405 17.1457 4.29 16.96L4.35 16.9C4.58054 16.6643 4.73519 16.365 4.794 16.0406C4.85282 15.7162 4.81312 15.3816 4.68 15.08C4.55324 14.7842 4.34276 14.532 4.07447 14.3543C3.80618 14.1766 3.49179 14.0813 3.17 14.08H3C2.46957 14.08 1.96086 13.8693 1.58579 13.4942C1.21071 13.1191 1 12.6104 1 12.08C1 11.5496 1.21071 11.0409 1.58579 10.6658C1.96086 10.2907 2.46957 10.08 3 10.08H3.09C3.42099 10.0723 3.742 9.96512 4.0113 9.77251C4.28059 9.5799 4.48572 9.31074 4.6 9C4.73312 8.69838 4.77282 8.36381 4.714 8.03941C4.65519 7.71502 4.50054 7.41568 4.27 7.18L4.21 7.12C4.02405 6.93425 3.87653 6.71368 3.77588 6.47088C3.67523 6.22808 3.62343 5.96783 3.62343 5.705C3.62343 5.44217 3.67523 5.18192 3.77588 4.93912C3.87653 4.69632 4.02405 4.47575 4.21 4.29C4.39575 4.10405 4.61632 3.95653 4.85912 3.85588C5.10192 3.75523 5.36217 3.70343 5.625 3.70343C5.88783 3.70343 6.14808 3.75523 6.39088 3.85588C6.63368 3.95653 6.85425 4.10405 7.04 4.29L7.1 4.35C7.33568 4.58054 7.63502 4.73519 7.95941 4.794C8.28381 4.85282 8.61838 4.81312 8.92 4.68H9C9.29577 4.55324 9.54802 4.34276 9.72569 4.07447C9.90337 3.80618 9.99872 3.49179 10 3.17V3C10 2.46957 10.2107 1.96086 10.5858 1.58579C10.9609 1.21071 11.4696 1 12 1C12.5304 1 13.0391 1.21071 13.4142 1.58579C13.7893 1.96086 14 2.46957 14 3V3.09C14.0013 3.41179 14.0966 3.72618 14.2743 3.99447C14.452 4.26276 14.7042 4.47324 15 4.6C15.3016 4.73312 15.6362 4.77282 15.9606 4.714C16.285 4.65519 16.5843 4.50054 16.82 4.27L16.88 4.21C17.0657 4.02405 17.2863 3.87653 17.5291 3.77588C17.7719 3.67523 18.0322 3.62343 18.295 3.62343C18.5578 3.62343 18.8181 3.67523 19.0609 3.77588C19.3037 3.87653 19.5243 4.02405 19.71 4.21C19.896 4.39575 20.0435 4.61632 20.1441 4.85912C20.2448 5.10192 20.2966 5.36217 20.2966 5.625C20.2966 5.88783 20.2448 6.14808 20.1441 6.39088C20.0435 6.63368 19.896 6.85425 19.71 7.04L19.65 7.1C19.4195 7.33568 19.2648 7.63502 19.206 7.95941C19.1472 8.28381 19.1869 8.61838 19.32 8.92V9C19.4468 9.29577 19.6572 9.54802 19.9255 9.72569C20.1938 9.90337 20.5082 9.99872 20.83 10H21C21.5304 10 22.0391 10.2107 22.4142 10.5858C22.7893 10.9609 23 11.4696 23 12C23 12.5304 22.7893 13.0391 22.4142 13.4142C22.0391 13.7893 21.5304 14 21 14H20.91C20.5882 14.0013 20.2738 14.0966 20.0055 14.2743C19.7372 14.452 19.5268 14.7042 19.4 15V15Z" stroke-width="2" stroke-linecap="round" stroke-linejoin="round"/>
    </symbol>
    <symbol id="round-user"  viewBox="0 0 28 28">
        <path d="M22 24V22C22 20.9391 21.5786 19.9217 20.8284 19.1716C20.0783 18.4214 19.0609 18 18 18H10C8.93913 18 7.92172 18.4214 7.17157 19.1716C6.42143 19.9217 6 20.9391 6 22V24" stroke-width="2" stroke-linecap="round" stroke-linejoin="round"/>
        <path d="M14 14C16.2091 14 18 12.2091 18 10C18 7.79086 16.2091 6 14 6C11.7909 6 10 7.79086 10 10C10 12.2091 11.7909 14 14 14Z" stroke-width="2" stroke-linecap="round" stroke-linejoin="round"/>
        <circle cx="14" cy="14" r="13" stroke-width="2"/>
    </symbol>
    <symbol id="edit" viewBox="0 0 24 24">
        <path d="M20 14.66V20C20 20.5304 19.7893 21.0391 19.4142 21.4142C19.0391 21.7893 18.5304 22 18 22H4C3.46957 22 2.96086 21.7893 2.58579 21.4142C2.21071 21.0391 2 20.5304 2 20V6C2 5.46957 2.21071 4.96086 2.58579 4.58579C2.96086 4.21071 3.46957 4 4 4H9.34" stroke-width="2" stroke-linecap="round" stroke-linejoin="round"/>
        <path d="M18 2L22 6L12 16H8V12L18 2Z" stroke-width="2" stroke-linecap="round" stroke-linejoin="round"/>
    </symbol>
    <symbol id="edit-2" viewBox="0 0 24 24">
        <path d="M16 3L21 8L8 21H3V16L16 3Z" stroke-width="2" stroke-linecap="round" stroke-linejoin="round"/>
    </symbol>
    <symbol id="book" viewBox="0 0 24 24">
        <path d="M4 19.5C4 18.837 4.26339 18.2011 4.73223 17.7322C5.20107 17.2634 5.83696 17 6.5 17H20" stroke-width="2" stroke-linecap="round" stroke-linejoin="round"/>
        <path d="M6.5 2H20V22H6.5C5.83696 22 5.20107 21.7366 4.73223 21.2678C4.26339 20.7989 4 20.163 4 19.5V4.5C4 3.83696 4.26339 3.20107 4.73223 2.73223C5.20107 2.26339 5.83696 2 6.5 2V2Z" stroke-width="2" stroke-linecap="round" stroke-linejoin="round"/>
    </symbol>
    <symbol id="external-link" viewBox="0 0 24 24">
        <path d="M18 13V19C18 19.5304 17.7893 20.0391 17.4142 20.4142C17.0391 20.7893 16.5304 21 16 21H5C4.46957 21 3.96086 20.7893 3.58579 20.4142C3.21071 20.0391 3 19.5304 3 19V8C3 7.46957 3.21071 6.96086 3.58579 6.58579C3.96086 6.21071 4.46957 6 5 6H11" stroke-width="2" stroke-linecap="round" stroke-linejoin="round"/>
        <path d="M15 3H21V9" stroke-width="2" stroke-linecap="round" stroke-linejoin="round"/>
        <path d="M10 14L21 3" stroke-width="2" stroke-linecap="round" stroke-linejoin="round"/>
    </symbol>
    <symbol id="plugin" viewBox="0 0 24 24">
        <g><path d="M12.162,5.271c-0.848,0.227 -1.621,0.673 -2.241,1.294c-1.952,1.951 -1.952,5.119 -0,7.071c1.951,1.951 5.119,1.951 7.071,-0c0.62,-0.621 1.067,-1.394 1.294,-2.242l-6.124,-6.123Z" style="fill:none;stroke-width:2px;"/><path d="M16.963,3l-3.536,3.536" style="fill:none;stroke-width:2px;stroke-miterlimit:1.5;"/><path d="M20.498,6.536l-3.535,3.535" style="fill:none;stroke-width:2px;stroke-miterlimit:1.5;"/><path d="M14.536,12.536l-3.536,-3.536" style="fill:none;stroke-width:2px;stroke-miterlimit:1.5;"/><path d="M9.921,13.636l-6.365,6.364" style="fill:none;stroke-width:2px;stroke-miterlimit:1.5;"/></g>
    </symbol>
    <symbol id="automaton" viewBox="0 0 24 24">
        <g><path d="M20,6.322c0,-1.329 -1.079,-2.409 -2.409,-2.409l-10.182,0c-1.33,0 -2.409,1.08 -2.409,2.409l0,4.818c0,1.33 1.079,2.409 2.409,2.409l10.182,0c1.33,0 2.409,-1.079 2.409,-2.409l0,-4.818Z" style="fill:none;stroke-width:2px;"/><path d="M15,14.799c0,-0.69 -0.56,-1.25 -1.25,-1.25l-2.5,0c-0.69,0 -1.25,0.56 -1.25,1.25l0,3.801c0,0.69 0.56,1.25 1.25,1.25l2.5,-0c0.69,-0 1.25,-0.56 1.25,-1.25l0,-3.801Z" style="fill:none;stroke-width:2px;"/><g><path d="M9.158,1.85l0,1.749" style="fill:none;stroke-width:2px;"/><path d="M15.842,1.85l-0,1.749" style="fill:none;stroke-width:2px;"/></g><path d="M15,16.85l2,-0" style="fill:none;stroke-width:2px;"/><path d="M15,18l0,4" style="fill:none;stroke-width:2px;"/><path d="M10,18l0,4" style="fill:none;stroke-width:2px;"/><path d="M8,16.85l2,-0" style="fill:none;stroke-width:2px;"/><path d="M10.732,10.7l3.536,-0" style="fill:none;stroke-width:2px;"/><g><path d="M16.867,7.064l0,1.749" style="fill:none;stroke-width:2px;"/><path d="M8.133,7.064l-0,1.749" style="fill:none;stroke-width:2px;"/></g></g>
    </symbol>
    <symbol id="grid" viewBox="0 0 24 24">
        <path d="M10 3H3V10H10V3Z" stroke-width="2" stroke-linecap="round" stroke-linejoin="round"/>
        <path d="M21 3H14V10H21V3Z" stroke-width="2" stroke-linecap="round" stroke-linejoin="round"/>
        <path d="M21 14H14V21H21V14Z" stroke-width="2" stroke-linecap="round" stroke-linejoin="round"/>
        <path d="M10 14H3V21H10V14Z" stroke-width="2" stroke-linecap="round" stroke-linejoin="round"/>
    </symbol>
    <symbol id="info" viewBox="0 0 24 24">
        <g clip-path="url(#clip0)">
            <path d="M12 22C17.5228 22 22 17.5228 22 12C22 6.47715 17.5228 2 12 2C6.47715 2 2 6.47715 2 12C2 17.5228 6.47715 22 12 22Z" stroke-width="2" stroke-linecap="round" stroke-linejoin="round"/>
            <path d="M12 16V12" stroke-width="2" stroke-linecap="round" stroke-linejoin="round"/>
            <path d="M12 8H12.01" stroke-width="2" stroke-linecap="round" stroke-linejoin="round"/>
        </g>
        <defs>
            <clipPath id="clip0">
                <rect width="24" height="24" fill="white"/>
            </clipPath>
        </defs>
    </symbol>


    <symbol id="alert-triangle" viewBox="0 0 24 24">
        <g clip-path="url(#clip0)">
            <path d="M10.29 3.85996L1.82001 18C1.64537 18.3024 1.55297 18.6453 1.55199 18.9945C1.55102 19.3437 1.6415 19.6871 1.81443 19.9905C1.98737 20.2939 2.23673 20.5467 2.53771 20.7238C2.8387 20.9009 3.1808 20.9961 3.53001 21H20.47C20.8192 20.9961 21.1613 20.9009 21.4623 20.7238C21.7633 20.5467 22.0126 20.2939 22.1856 19.9905C22.3585 19.6871 22.449 19.3437 22.448 18.9945C22.447 18.6453 22.3546 18.3024 22.18 18L13.71 3.85996C13.5317 3.56607 13.2807 3.32308 12.9812 3.15444C12.6817 2.98581 12.3437 2.89722 12 2.89722C11.6563 2.89722 11.3183 2.98581 11.0188 3.15444C10.7193 3.32308 10.4683 3.56607 10.29 3.85996V3.85996Z"
                  stroke-width="2" stroke-linecap="round" stroke-linejoin="round"/>
            <path d="M12 17H12.01" stroke-width="2" stroke-linecap="round" stroke-linejoin="round"/>
            <path d="M12 9V13" stroke-width="2" stroke-linecap="round" stroke-linejoin="round"/>
        </g>
        <defs>
            <clipPath id="clip0">
                <rect width="24" height="24" fill="white"/>
            </clipPath>
        </defs>
    </symbol>
    <symbol id="slash" viewBox="0 0 24 24">
        <path d="M12 22C17.5228 22 22 17.5228 22 12C22 6.47715 17.5228 2 12 2C6.47715 2 2 6.47715 2 12C2 17.5228 6.47715 22 12 22Z"
              stroke-width="2" stroke-linecap="round" stroke-linejoin="round"/>
        <path d="M4.92999 4.93L19.07 19.07" stroke-width="2" stroke-linecap="round" stroke-linejoin="round"/>
    </symbol>
    <symbol id="file-text" viewBox="0 0 24 24">
        <path d="M14 2H6C5.46957 2 4.96086 2.21071 4.58579 2.58579C4.21071 2.96086 4 3.46957 4 4V20C4 20.5304 4.21071 21.0391 4.58579 21.4142C4.96086 21.7893 5.46957 22 6 22H18C18.5304 22 19.0391 21.7893 19.4142 21.4142C19.7893 21.0391 20 20.5304 20 20V8L14 2Z"
              stroke-width="2" stroke-linecap="round" stroke-linejoin="round"/>
        <path d="M14 2V8H20" stroke-width="2" stroke-linecap="round" stroke-linejoin="round"/>
        <path d="M16 13H8" stroke-width="2" stroke-linecap="round" stroke-linejoin="round"/>
        <path d="M16 17H8" stroke-width="2" stroke-linecap="round" stroke-linejoin="round"/>
        <path d="M10 9H9H8" stroke-width="2" stroke-linecap="round" stroke-linejoin="round"/>
    </symbol>
    <symbol id="send" viewBox="0 0 24 24">
        <path d="M22 2L11 13" stroke-width="2" stroke-linecap="round" stroke-linejoin="round"/>
        <path d="M22 2L15 22L11 13L2 9L22 2Z" stroke-width="2" stroke-linecap="round" stroke-linejoin="round"/>
    </symbol>
    <symbol id="heart" viewBox="0 0 24 24">
        <path d="M20.84 4.60999C20.3292 4.099 19.7228 3.69364 19.0554 3.41708C18.3879 3.14052 17.6725 2.99817 16.95 2.99817C16.2275 2.99817 15.5121 3.14052 14.8446 3.41708C14.1772 3.69364 13.5708 4.099 13.06 4.60999L12 5.66999L10.94 4.60999C9.9083 3.5783 8.50903 2.9987 7.05 2.9987C5.59096 2.9987 4.19169 3.5783 3.16 4.60999C2.1283 5.64169 1.54871 7.04096 1.54871 8.49999C1.54871 9.95903 2.1283 11.3583 3.16 12.39L4.22 13.45L12 21.23L19.78 13.45L20.84 12.39C21.351 11.8792 21.7563 11.2728 22.0329 10.6053C22.3095 9.93789 22.4518 9.22248 22.4518 8.49999C22.4518 7.77751 22.3095 7.0621 22.0329 6.39464C21.7563 5.72718 21.351 5.12075 20.84 4.60999V4.60999Z"
              stroke-width="2" stroke-linecap="round" stroke-linejoin="round"/>
    </symbol>
    <symbol id="printer" viewBox="0 0 24 24">
        <path d="M6 9V2H18V9" stroke-width="2" stroke-linecap="round" stroke-linejoin="round"/>
        <path d="M6 18H4C3.46957 18 2.96086 17.7893 2.58579 17.4142C2.21071 17.0391 2 16.5304 2 16V11C2 10.4696 2.21071 9.96086 2.58579 9.58579C2.96086 9.21071 3.46957 9 4 9H20C20.5304 9 21.0391 9.21071 21.4142 9.58579C21.7893 9.96086 22 10.4696 22 11V16C22 16.5304 21.7893 17.0391 21.4142 17.4142C21.0391 17.7893 20.5304 18 20 18H18"
              stroke-width="2" stroke-linecap="round" stroke-linejoin="round"/>
        <path d="M18 14H6V22H18V14Z" stroke-width="2" stroke-linecap="round" stroke-linejoin="round"/>
    </symbol>
    <symbol id="share-2" viewBox="0 0 24 24">
        <path d="M18 8C19.6569 8 21 6.65685 21 5C21 3.34315 19.6569 2 18 2C16.3431 2 15 3.34315 15 5C15 6.65685 16.3431 8 18 8Z"
              stroke-width="2" stroke-linecap="round" stroke-linejoin="round"/>
        <path d="M6 15C7.65685 15 9 13.6569 9 12C9 10.3431 7.65685 9 6 9C4.34315 9 3 10.3431 3 12C3 13.6569 4.34315 15 6 15Z"
              stroke-width="2" stroke-linecap="round" stroke-linejoin="round"/>
        <path d="M18 22C19.6569 22 21 20.6569 21 19C21 17.3431 19.6569 16 18 16C16.3431 16 15 17.3431 15 19C15 20.6569 16.3431 22 18 22Z"
              stroke-width="2" stroke-linecap="round" stroke-linejoin="round"/>
        <path d="M8.59 13.51L15.42 17.49" stroke-width="2" stroke-linecap="round" stroke-linejoin="round"/>
        <path d="M15.41 6.51L8.59 10.49" stroke-width="2" stroke-linecap="round" stroke-linejoin="round"/>
    </symbol>
    <symbol id="filter" viewBox="0 0 24 24">
        <path d="M22 3H2L10 12.46V19L14 21V12.46L22 3Z" stroke-width="2" stroke-linecap="round"
              stroke-linejoin="round"/>
    </symbol>
    <symbol id="sliders" viewBox="0 0 24 24">
        <path d="M4 21V14" stroke-width="2" stroke-linecap="round" stroke-linejoin="round"/>
        <path d="M4 10V3" stroke-width="2" stroke-linecap="round" stroke-linejoin="round"/>
        <path d="M12 21V12" stroke-width="2" stroke-linecap="round" stroke-linejoin="round"/>
        <path d="M12 8V3" stroke-width="2" stroke-linecap="round" stroke-linejoin="round"/>
        <path d="M20 21V16" stroke-width="2" stroke-linecap="round" stroke-linejoin="round"/>
        <path d="M20 12V3" stroke-width="2" stroke-linecap="round" stroke-linejoin="round"/>
        <path d="M1 14H7" stroke-width="2" stroke-linecap="round" stroke-linejoin="round"/>
        <path d="M9 8H15" stroke-width="2" stroke-linecap="round" stroke-linejoin="round"/>
        <path d="M17 16H23" stroke-width="2" stroke-linecap="round" stroke-linejoin="round"/>
    </symbol>
    <symbol id="triangle" viewBox="0 0 24 24">
        <path d="M18 12L6 18.9282L6 5.0718L18 12Z"/>
    </symbol>
    <symbol id="tables" viewBox="0 0 24 24">
        <path d="M6.52304 0.703125H0.875977V6.35017H6.52304V0.703125Z"/>
        <path d="M6.52304 9.17578H0.875977V14.8228H6.52304V9.17578Z"/>
        <path d="M6.52304 17.6426H0.875977V23.2896H6.52304V17.6426Z"/>
        <path d="M14.9928 0.703125H9.3457V6.35017H14.9928V0.703125Z"/>
        <path d="M14.9928 9.17578H9.3457V14.8228H14.9928V9.17578Z"/>
        <path d="M14.9928 17.6426H9.3457V23.2896H14.9928V17.6426Z"/>
        <path d="M23.4654 0.703125H17.8184V6.35017H23.4654V0.703125Z"/>
        <path d="M23.4654 9.17578H17.8184V14.8228H23.4654V9.17578Z"/>
        <path d="M23.4654 17.6426H17.8184V23.2896H23.4654V17.6426Z"/>
    </symbol>
    <symbol id="user" viewBox="0 0 24 24">
        <path d="M12.1947 12.0729C15.1402 12.0729 17.528 9.68507 17.528 6.73956C17.528 3.79406 15.1402 1.40625 12.1947 1.40625C9.24915 1.40625 6.86133 3.79406 6.86133 6.73956C6.86133 9.68507 9.24915 12.0729 12.1947 12.0729Z"/>
        <path fill-rule="evenodd" clip-rule="evenodd"
              d="M12.1957 13.3301C17.4864 13.3301 21.7957 16.7098 21.7957 20.874C21.7957 25.0383 2.5957 25.0383 2.5957 20.874C2.5957 16.7098 6.90504 13.3301 12.1957 13.3301Z"/>
    </symbol>
    <symbol id="plus-thin" viewBox="0 0 24 24">
        <path fill-rule="evenodd" clip-rule="evenodd"
              d="M14.0715 10.1507V0.919922H10.3792V10.1507H1.14844V13.843H10.3792V23.0737H14.0715V13.843H23.3023V10.1507H14.0715Z"/>
    </symbol>
    <symbol id="add" viewBox="0 0 24 24">
        <path fill-rule="evenodd" clip-rule="evenodd"
              d="M14.9526 8.88658V0.416016H9.30556V8.88658H0.834961V14.5336H9.30556V23.0042H14.9526V14.5336H23.4232V8.88658H14.9526Z"/>
    </symbol>
    <symbol id="search" viewBox="0 0 24 24">
        <path d="M10.7132 19.8831C15.7623 19.8831 19.8561 15.7894 19.8561 10.7402C19.8561 5.69111 15.7623 1.59741 10.7132 1.59741C5.66403 1.59741 1.57031 5.69111 1.57031 10.7402C1.57031 15.7894 5.66403 19.8831 10.7132 19.8831Z"
              stroke-width="2" stroke-linecap="round" stroke-linejoin="round"/>
        <path d="M22.1394 22.1687L17.168 17.1973" stroke-width="2" stroke-linecap="round" stroke-linejoin="round"/>
    </symbol>
    <symbol id="trash-2" viewBox="0 0 24 24">
        <path d="M3 6H5H21" stroke-width="2" stroke-linecap="round" stroke-linejoin="round"/>
        <path d="M8 6V4C8 3.46957 8.21071 2.96086 8.58579 2.58579C8.96086 2.21071 9.46957 2 10 2H14C14.5304 2 15.0391 2.21071 15.4142 2.58579C15.7893 2.96086 16 3.46957 16 4V6M19 6V20C19 20.5304 18.7893 21.0391 18.4142 21.4142C18.0391 21.7893 17.5304 22 17 22H7C6.46957 22 5.96086 21.7893 5.58579 21.4142C5.21071 21.0391 5 20.5304 5 20V6H19Z"
              stroke-width="2" stroke-linecap="round" stroke-linejoin="round"/>
        <path d="M10 11V17" stroke-width="2" stroke-linecap="round" stroke-linejoin="round"/>
        <path d="M14 11V17" stroke-width="2" stroke-linecap="round" stroke-linejoin="round"/>
    </symbol>
    <symbol id="clock" viewBox="0 0 24 24">
        <path d="M12 22C17.5228 22 22 17.5228 22 12C22 6.47715 17.5228 2 12 2C6.47715 2 2 6.47715 2 12C2 17.5228 6.47715 22 12 22Z"
              stroke-width="2" stroke-linecap="round" stroke-linejoin="round"/>
        <path d="M12 6V12L16 14" stroke-width="2" stroke-linecap="round" stroke-linejoin="round"/>
    </symbol>
    <symbol id="folder" viewBox="0 0 24 24">
        <path d="M22 19C22 19.5304 21.7893 20.0391 21.4142 20.4142C21.0391 20.7893 20.5304 21 20 21H4C3.46957 21 2.96086 20.7893 2.58579 20.4142C2.21071 20.0391 2 19.5304 2 19V5C2 4.46957 2.21071 3.96086 2.58579 3.58579C2.96086 3.21071 3.46957 3 4 3H9L11 6H20C20.5304 6 21.0391 6.21071 21.4142 6.58579C21.7893 6.96086 22 7.46957 22 8V19Z"
              stroke-width="2" stroke-linecap="round" stroke-linejoin="round"/>
    </symbol>
    <symbol id="download" viewBox="0 0 24 24">
        <path d="M21 15V19C21 19.5304 20.7893 20.0391 20.4142 20.4142C20.0391 20.7893 19.5304 21 19 21H5C4.46957 21 3.96086 20.7893 3.58579 20.4142C3.21071 20.0391 3 19.5304 3 19V15" stroke-width="2" stroke-linecap="round" stroke-linejoin="round"/>
        <path d="M7 10L12 15L17 10" stroke-width="2" stroke-linecap="round" stroke-linejoin="round"/>
        <path d="M12 15V3" stroke-width="2" stroke-linecap="round" stroke-linejoin="round"/>
    </symbol>
    <symbol id="eye" viewBox="0 0 24 24">
        <path d="M1 12C1 12 5 4 12 4C19 4 23 12 23 12C23 12 19 20 12 20C5 20 1 12 1 12Z" stroke-width="2" stroke-linecap="round" stroke-linejoin="round"/>
        <path d="M12 15C13.6569 15 15 13.6569 15 12C15 10.3431 13.6569 9 12 9C10.3431 9 9 10.3431 9 12C9 13.6569 10.3431 15 12 15Z" stroke-width="2" stroke-linecap="round" stroke-linejoin="round"/>
    </symbol>
    <symbol id="eye-off" viewBox="0 0 24 24">
        <path d="M14.12 14.12C13.8454 14.4147 13.5141 14.6512 13.1462 14.8151C12.7782 14.9791 12.3809 15.0673 11.9781 15.0744C11.5753 15.0815 11.1752 15.0074 10.8016 14.8565C10.4281 14.7056 10.0887 14.481 9.80385 14.1962C9.51897 13.9113 9.29439 13.5719 9.14351 13.1984C8.99262 12.8248 8.91853 12.4247 8.92563 12.0219C8.93274 11.6191 9.02091 11.2218 9.18488 10.8538C9.34884 10.4859 9.58525 10.1547 9.88 9.88M17.94 17.94C16.2306 19.243 14.1491 19.9649 12 20C5 20 1 12 1 12C2.24389 9.6819 3.96914 7.65661 6.06 6.06L17.94 17.94ZM9.9 4.24C10.5883 4.07888 11.2931 3.99834 12 4C19 4 23 12 23 12C22.393 13.1356 21.6691 14.2047 20.84 15.19L9.9 4.24Z" stroke-width="2" stroke-linecap="round" stroke-linejoin="round"/>
        <path d="M1 1L23 23" stroke-width="2" stroke-linecap="round" stroke-linejoin="round"/>
    </symbol>
    <symbol id="sort" viewBox="0 0 24 24">
        <path d="M7 5V19" stroke-width="2" stroke-linecap="round" stroke-linejoin="round"/>
        <path d="M17 19L17 5" stroke-width="2" stroke-linecap="round" stroke-linejoin="round"/>
        <path d="M2 15L7 19L12 15" stroke-width="2" stroke-linecap="round"/>
        <path d="M22 9L17 5L12 9" stroke-width="2" stroke-linecap="round"/>
    </symbol>
    <symbol id="draggable" viewBox="0 0 24 24">
        <path d="M9 13C9.55228 13 10 12.5523 10 12C10 11.4477 9.55228 11 9 11C8.44772 11 8 11.4477 8 12C8 12.5523 8.44772 13 9 13Z" stroke-width="2" stroke-linecap="round" stroke-linejoin="round"/>
        <path d="M15 13C15.5523 13 16 12.5523 16 12C16 11.4477 15.5523 11 15 11C14.4477 11 14 11.4477 14 12C14 12.5523 14.4477 13 15 13Z" stroke-width="2" stroke-linecap="round" stroke-linejoin="round"/>
        <path d="M9 6C9.55228 6 10 5.55228 10 5C10 4.44772 9.55228 4 9 4C8.44772 4 8 4.44772 8 5C8 5.55228 8.44772 6 9 6Z" stroke-width="2" stroke-linecap="round" stroke-linejoin="round"/>
        <path d="M15 6C15.5523 6 16 5.55228 16 5C16 4.44772 15.5523 4 15 4C14.4477 4 14 4.44772 14 5C14 5.55228 14.4477 6 15 6Z" stroke-width="2" stroke-linecap="round" stroke-linejoin="round"/>
        <path d="M9 20C9.55228 20 10 19.5523 10 19C10 18.4477 9.55228 18 9 18C8.44772 18 8 18.4477 8 19C8 19.5523 8.44772 20 9 20Z" stroke-width="2" stroke-linecap="round" stroke-linejoin="round"/>
        <path d="M15 20C15.5523 20 16 19.5523 16 19C16 18.4477 15.5523 18 15 18C14.4477 18 14 18.4477 14 19C14 19.5523 14.4477 20 15 20Z" stroke-width="2" stroke-linecap="round" stroke-linejoin="round"/>
    </symbol>
    <symbol id="rotate-ccw" viewBox="0 0 24 24">
        <path d="M1 4V10H7" stroke-width="2" stroke-linecap="round" stroke-linejoin="round"/>
        <path d="M3.51 15C4.15839 16.8404 5.38734 18.4202 7.01166 19.5014C8.63598 20.5826 10.5677 21.1066 12.5157 20.9945C14.4637 20.8823 16.3226 20.1402 17.8121 18.8798C19.3017 17.6193 20.3413 15.909 20.7742 14.0064C21.2072 12.1037 21.0101 10.112 20.2126 8.33109C19.4152 6.55024 18.0605 5.07679 16.3528 4.13276C14.6451 3.18873 12.6769 2.82526 10.7447 3.09711C8.81245 3.36896 7.02091 4.26142 5.64 5.63999L1 9.99999" stroke-width="2" stroke-linecap="round" stroke-linejoin="round"/>
    </symbol>
    <symbol id="copy" viewBox="0 0 24 24">
        <path d="M20 9H11C9.89543 9 9 9.89543 9 11V20C9 21.1046 9.89543 22 11 22H20C21.1046 22 22 21.1046 22 20V11C22 9.89543 21.1046 9 20 9Z" stroke-width="2" stroke-linecap="round" stroke-linejoin="round"/>
        <path d="M5 15H4C3.46957 15 2.96086 14.7893 2.58579 14.4142C2.21071 14.0391 2 13.5304 2 13V4C2 3.46957 2.21071 2.96086 2.58579 2.58579C2.96086 2.21071 3.46957 2 4 2H13C13.5304 2 14.0391 2.21071 14.4142 2.58579C14.7893 2.96086 15 3.46957 15 4V5" stroke-width="2" stroke-linecap="round" stroke-linejoin="round"/>
    </symbol>
    <symbol id="shipping-cart" viewBox="0 0 24 24">
        <path d="M9 22C9.55228 22 10 21.5523 10 21C10 20.4477 9.55228 20 9 20C8.44772 20 8 20.4477 8 21C8 21.5523 8.44772 22 9 22Z" stroke-width="2" stroke-linecap="round" stroke-linejoin="round"/>
        <path d="M20 22C20.5523 22 21 21.5523 21 21C21 20.4477 20.5523 20 20 20C19.4477 20 19 20.4477 19 21C19 21.5523 19.4477 22 20 22Z" stroke-width="2" stroke-linecap="round" stroke-linejoin="round"/>
        <path d="M1 1H5L7.68 14.39C7.77144 14.8504 8.02191 15.264 8.38755 15.5583C8.75318 15.8526 9.2107 16.009 9.68 16H19.4C19.8693 16.009 20.3268 15.8526 20.6925 15.5583C21.0581 15.264 21.3086 14.8504 21.4 14.39L23 6H6" stroke-width="2" stroke-linecap="round" stroke-linejoin="round"/>
    </symbol>
    <symbol id="gift" viewBox="0 0 24 24">
        <path d="M20.5793 12.3329V22.3329H4.57935V12.3329" stroke-width="2" stroke-linecap="round" stroke-linejoin="round"/>
        <path d="M22.5793 7.33295H2.57935V12.3329H22.5793V7.33295Z" stroke-width="2" stroke-linecap="round" stroke-linejoin="round"/>
        <path d="M12.5793 22.3329V7.33295" stroke-width="2" stroke-linecap="round" stroke-linejoin="round"/>
        <path d="M12.5793 7.33295H8.07935C7.4163 7.33295 6.78042 7.06955 6.31158 6.60071C5.84274 6.13187 5.57935 5.49599 5.57935 4.83295C5.57935 4.16991 5.84274 3.53402 6.31158 3.06518C6.78042 2.59634 7.4163 2.33295 8.07935 2.33295C11.5793 2.33295 12.5793 7.33295 12.5793 7.33295Z" stroke-width="2" stroke-linecap="round" stroke-linejoin="round"/>
        <path d="M12.5793 7.33295H17.0793C17.7424 7.33295 18.3783 7.06955 18.8471 6.60071C19.316 6.13187 19.5793 5.49599 19.5793 4.83295C19.5793 4.16991 19.316 3.53402 18.8471 3.06518C18.3783 2.59634 17.7424 2.33295 17.0793 2.33295C13.5793 2.33295 12.5793 7.33295 12.5793 7.33295Z" stroke-width="2" stroke-linecap="round" stroke-linejoin="round"/>
    </symbol>
    <symbol id="calendar" viewBox="0 0 24 24">
        <path d="M19.5781 4.76495H5.57812C4.47356 4.76495 3.57812 5.66038 3.57812 6.76495V20.765C3.57812 21.8695 4.47356 22.765 5.57812 22.765H19.5781C20.6827 22.765 21.5781 21.8695 21.5781 20.765V6.76495C21.5781 5.66038 20.6827 4.76495 19.5781 4.76495Z" stroke-width="2" stroke-linecap="round" stroke-linejoin="round"/>
        <path d="M16.5781 2.76495V6.76495" stroke-width="2" stroke-linecap="round" stroke-linejoin="round"/>
        <path d="M8.57812 2.76495V6.76495" stroke-width="2" stroke-linecap="round" stroke-linejoin="round"/>
        <path d="M3.57812 10.765H21.5781" stroke-width="2" stroke-linecap="round" stroke-linejoin="round"/>
    </symbol>
</svg>
