<svg xmlns="http://www.w3.org/2000/svg">
    <symbol id="whatsapp" viewBox="0 0 32 32">
        <path d=" M19.11 17.205c-.372 0-1.088 1.39-1.518 1.39a.63.63 0 0 1-.315-.1c-.802-.402-1.504-.817-2.163-1.447-.545-.516-1.146-1.29-1.46-1.963a.426.426 0 0 1-.073-.215c0-.33.99-.945.99-1.49 0-.143-.73-2.09-.832-2.335-.143-.372-.214-.487-.6-.487-.187 0-.36-.043-.53-.043-.302 0-.53.115-.746.315-.688.645-1.032 1.318-1.06 2.264v.114c-.015.99.472 1.977 1.017 2.78 1.23 1.82 2.506 3.41 4.554 4.34.616.287 2.035.888 2.722.888.817 0 2.15-.515 2.478-1.318.13-.33.244-.73.244-1.088 0-.058 0-.144-.03-.215-.1-.172-2.434-1.39-2.678-1.39zm-2.908 7.593c-1.747 0-3.48-.53-4.942-1.49L7.793 24.41l1.132-3.337a8.955 8.955 0 0 1-1.72-5.272c0-4.955 4.04-8.995 8.997-8.995S25.2 10.845 25.2 15.8c0 4.958-4.04 8.998-8.998 8.998zm0-19.798c-5.96 0-10.8 4.842-10.8 10.8 0 1.964.53 3.898 1.546 5.574L5 27.176l5.974-1.92a10.807 10.807 0 0 0 16.03-9.455c0-5.958-4.842-10.8-10.802-10.8z"
              fill-rule="evenodd"></path>
    </symbol>
    <symbol id="file-plus" viewBox="0 0 24 24">
        <path d="M14 2H6C5.46957 2 4.96086 2.21071 4.58579 2.58579C4.21071 2.96086 4 3.46957 4 4V20C4 20.5304 4.21071 21.0391 4.58579 21.4142C4.96086 21.7893 5.46957 22 6 22H18C18.5304 22 19.0391 21.7893 19.4142 21.4142C19.7893 21.0391 20 20.5304 20 20V8L14 2Z" stroke-width="2" stroke-linecap="round" stroke-linejoin="round"/>
        <path d="M14 2V8H20" stroke-width="2" stroke-linecap="round" stroke-linejoin="round"/>
        <path d="M12 18V12"  stroke-width="2" stroke-linecap="round" stroke-linejoin="round"/>
        <path d="M9 15H15"  stroke-width="2" stroke-linecap="round" stroke-linejoin="round"/>
    </symbol>
    <symbol id="menu" viewBox="0 0 32 32"><path d="M5 8h22M5 16h22M27 24H5" stroke-width="3" stroke-linecap="round"/></symbol>
    <symbol id="cross" viewBox="0 0 32 32"><path d="M7 24L25 8M25 24L7 8" stroke-width="3" stroke-linecap="round"/></symbol>
    <symbol id="chevron-right" viewBox="0 0 24 24">
        <path d="M9 18L15 12L9 6" stroke-width="2" stroke-linecap="round" stroke-linejoin="round"/>
    </symbol>
    <symbol id="plus" viewBox="0 0 24 24">
        <path d="M12 5V19" stroke-width="2" stroke-linecap="round" stroke-linejoin="round"/>
        <path d="M5 12H19" stroke-width="2" stroke-linecap="round" stroke-linejoin="round"/>
    </symbol>
    <symbol id="minus" viewBox="0 0 24 24">
        <path d="M5 12H19" stroke-width="2" stroke-linecap="round" stroke-linejoin="round"/>
    </symbol>
    <symbol id="check" viewBox="0 0 24 24">
        <path d="M20 6L9 17L4 12" stroke-width="2" stroke-linecap="round" stroke-linejoin="round"/>
    </symbol>
    <symbol id="save" viewBox="0 0 24 24">
        <path d="M19 21H5C4.46957 21 3.96086 20.7893 3.58579 20.4142C3.21071 20.0391 3 19.5304 3 19V5C3 4.46957 3.21071 3.96086 3.58579 3.58579C3.96086 3.21071 4.46957 3 5 3H16L21 8V19C21 19.5304 20.7893 20.0391 20.4142 20.4142C20.0391 20.7893 19.5304 21 19 21Z" stroke-width="2" stroke-linecap="round" stroke-linejoin="round"/>
        <path d="M17 21V13H7V21" stroke-width="2" stroke-linecap="round" stroke-linejoin="round"/>
        <path d="M7 3V8H15" stroke-width="2" stroke-linecap="round" stroke-linejoin="round"/>
    </symbol>
    <symbol id="refresh-cw" viewBox="0 0 24 24">
        <path d="M23 4V10H17" stroke-width="2" stroke-linecap="round" stroke-linejoin="round"/>
        <path d="M1 20V14H7" stroke-width="2" stroke-linecap="round" stroke-linejoin="round"/>
        <path d="M3.51 9C4.01717 7.56678 4.87913 6.2854 6.01547 5.27542C7.1518 4.26543 8.52547 3.55976 10.0083 3.22426C11.4911 2.88875 13.0348 2.93434 14.4952 3.35677C15.9556 3.77921 17.2853 4.56471 18.36 5.64L23 10M1 14L5.64 18.36C6.71475 19.4353 8.04437 20.2208 9.50481 20.6432C10.9652 21.0657 12.5089 21.1112 13.9917 20.7757C15.4745 20.4402 16.8482 19.7346 17.9845 18.7246C19.1209 17.7146 19.9828 16.4332 20.49 15" stroke-width="2" stroke-linecap="round" stroke-linejoin="round"/>
    </symbol>
    <symbol id="more-horizontal" viewBox="0 0 24 24">
        <path d="M12 13C12.5523 13 13 12.5523 13 12C13 11.4477 12.5523 11 12 11C11.4477 11 11 11.4477 11 12C11 12.5523 11.4477 13 12 13Z" stroke-width="2" stroke-linecap="round" stroke-linejoin="round"/>
        <path d="M19 13C19.5523 13 20 12.5523 20 12C20 11.4477 19.5523 11 19 11C18.4477 11 18 11.4477 18 12C18 12.5523 18.4477 13 19 13Z" stroke-width="2" stroke-linecap="round" stroke-linejoin="round"/>
        <path d="M5 13C5.55228 13 6 12.5523 6 12C6 11.4477 5.55228 11 5 11C4.44772 11 4 11.4477 4 12C4 12.5523 4.44772 13 5 13Z" stroke-width="2" stroke-linecap="round" stroke-linejoin="round"/>
    </symbol>
    <symbol id="more-vertical" viewBox="0 0 24 24">
        <path d="M12 13C12.5523 13 13 12.5523 13 12C13 11.4477 12.5523 11 12 11C11.4477 11 11 11.4477 11 12C11 12.5523 11.4477 13 12 13Z" stroke-width="2" stroke-linecap="round" stroke-linejoin="round"/>
        <path d="M12 6C12.5523 6 13 5.55228 13 5C13 4.44772 12.5523 4 12 4C11.4477 4 11 4.44772 11 5C11 5.55228 11.4477 6 12 6Z" stroke-width="2" stroke-linecap="round" stroke-linejoin="round"/>
        <path d="M12 20C12.5523 20 13 19.5523 13 19C13 18.4477 12.5523 18 12 18C11.4477 18 11 18.4477 11 19C11 19.5523 11.4477 20 12 20Z" stroke-width="2" stroke-linecap="round" stroke-linejoin="round"/>
    </symbol>
    <symbol id="x" viewBox="0 0 24 24">
        <path d="M18 6L6 18" stroke-width="2" stroke-linecap="round" stroke-linejoin="round"/>
        <path d="M6 6L18 18" stroke-width="2" stroke-linecap="round" stroke-linejoin="round"/>
    </symbol>
    <symbol id="phone-call"  viewBox="0 0 24 24">
        <path d="M15.05 5C16.0267 5.19057 16.9244 5.66826 17.6281 6.37194C18.3317 7.07561 18.8094 7.97326 19 8.95M15.05 1C17.0793 1.22544 18.9716 2.13417 20.4162 3.57701C21.8609 5.01984 22.772 6.91101 23 8.94M22 16.92V19.92C22.0011 20.1985 21.9441 20.4742 21.8325 20.7293C21.7209 20.9845 21.5573 21.2136 21.3521 21.4019C21.1468 21.5901 20.9046 21.7335 20.6407 21.8227C20.3769 21.9119 20.0974 21.9451 19.82 21.92C16.7428 21.5856 13.787 20.5341 11.19 18.85C8.77382 17.3147 6.72533 15.2662 5.18999 12.85C3.49997 10.2412 2.44824 7.27099 2.11999 4.18C2.095 3.90347 2.12787 3.62476 2.21649 3.36162C2.30512 3.09849 2.44756 2.85669 2.63476 2.65162C2.82196 2.44655 3.0498 2.28271 3.30379 2.17052C3.55777 2.05833 3.83233 2.00026 4.10999 2H7.10999C7.5953 1.99522 8.06579 2.16708 8.43376 2.48353C8.80173 2.79999 9.04207 3.23945 9.10999 3.72C9.23662 4.68007 9.47144 5.62273 9.80999 6.53C9.94454 6.88792 9.97366 7.27691 9.8939 7.65088C9.81415 8.02485 9.62886 8.36811 9.35999 8.64L8.08999 9.91C9.51355 12.4135 11.5864 14.4864 14.09 15.91L15.36 14.64C15.6319 14.3711 15.9751 14.1858 16.3491 14.1061C16.7231 14.0263 17.1121 14.0555 17.47 14.19C18.3773 14.5286 19.3199 14.7634 20.28 14.89C20.7658 14.9585 21.2094 15.2032 21.5265 15.5775C21.8437 15.9518 22.0122 16.4296 22 16.92Z" stroke-width="2" stroke-linecap="round" stroke-linejoin="round"/>
    </symbol>
    <symbol id="mail"  viewBox="0 0 24 24">
        <path d="M4 4H20C21.1 4 22 4.9 22 6V18C22 19.1 21.1 20 20 20H4C2.9 20 2 19.1 2 18V6C2 4.9 2.9 4 4 4Z" stroke-width="2" stroke-linecap="round" stroke-linejoin="round"/>
        <path d="M22 6L12 13L2 6" stroke-width="2" stroke-linecap="round" stroke-linejoin="round"/>
    </symbol>
    <symbol id="phone"  viewBox="0 0 24 24">
        <path d="M22 16.92V19.92C22.0011 20.1985 21.9441 20.4742 21.8325 20.7294C21.7209 20.9845 21.5573 21.2136 21.3521 21.4019C21.1469 21.5901 20.9046 21.7335 20.6408 21.8227C20.3769 21.9119 20.0974 21.9451 19.82 21.92C16.7428 21.5856 13.787 20.5342 11.19 18.85C8.77383 17.3147 6.72534 15.2662 5.19 12.85C3.49998 10.2412 2.44824 7.271 2.12 4.18001C2.09501 3.90347 2.12788 3.62477 2.2165 3.36163C2.30513 3.09849 2.44757 2.85669 2.63477 2.65163C2.82196 2.44656 3.04981 2.28271 3.30379 2.17053C3.55778 2.05834 3.83234 2.00027 4.11 2.00001H7.11C7.59531 1.99523 8.06579 2.16708 8.43376 2.48354C8.80173 2.79999 9.04208 3.23945 9.11 3.72001C9.23662 4.68007 9.47145 5.62273 9.81 6.53001C9.94455 6.88793 9.97366 7.27692 9.89391 7.65089C9.81415 8.02485 9.62886 8.36812 9.36 8.64001L8.09 9.91001C9.51356 12.4136 11.5865 14.4865 14.09 15.91L15.36 14.64C15.6319 14.3711 15.9752 14.1859 16.3491 14.1061C16.7231 14.0263 17.1121 14.0555 17.47 14.19C18.3773 14.5286 19.3199 14.7634 20.28 14.89C20.7658 14.9585 21.2094 15.2032 21.5265 15.5775C21.8437 15.9518 22.0122 16.4296 22 16.92Z" stroke-width="2" stroke-linecap="round" stroke-linejoin="round"/>
    </symbol>
</svg>
