<svg xmlns="http://www.w3.org/2000/svg">
    <symbol id="file-plus" viewBox="0 0 24 24">
        <path d="M14 2H6C5.46957 2 4.96086 2.21071 4.58579 2.58579C4.21071 2.96086 4 3.46957 4 4V20C4 20.5304 4.21071 21.0391 4.58579 21.4142C4.96086 21.7893 5.46957 22 6 22H18C18.5304 22 19.0391 21.7893 19.4142 21.4142C19.7893 21.0391 20 20.5304 20 20V8L14 2Z" stroke-width="2" stroke-linecap="round" stroke-linejoin="round"/>
        <path d="M14 2V8H20" stroke-width="2" stroke-linecap="round" stroke-linejoin="round"/>
        <path d="M12 18V12"  stroke-width="2" stroke-linecap="round" stroke-linejoin="round"/>
        <path d="M9 15H15"  stroke-width="2" stroke-linecap="round" stroke-linejoin="round"/>
    </symbol>
    <symbol id="menu" viewBox="0 0 24 24">
        <path d="M3 12H21" stroke-width="2" stroke-linecap="round" stroke-linejoin="round"/>
        <path d="M3 6H21" stroke-width="2" stroke-linecap="round" stroke-linejoin="round"/>
        <path d="M3 18H21" stroke-width="2" stroke-linecap="round" stroke-linejoin="round"/>
    </symbol>
    <symbol id="chevron-right" viewBox="0 0 24 24">
        <path d="M9 18L15 12L9 6" stroke-width="2" stroke-linecap="round" stroke-linejoin="round"/>
    </symbol>
    <symbol id="plus" viewBox="0 0 24 24">
        <path d="M12 5V19" stroke-width="2" stroke-linecap="round" stroke-linejoin="round"/>
        <path d="M5 12H19" stroke-width="2" stroke-linecap="round" stroke-linejoin="round"/>
    </symbol>
    <symbol id="minus" viewBox="0 0 24 24">
        <path d="M5 12H19" stroke-width="2" stroke-linecap="round" stroke-linejoin="round"/>
    </symbol>
    <symbol id="check" viewBox="0 0 24 24">
        <path d="M20 6L9 17L4 12" stroke-width="2" stroke-linecap="round" stroke-linejoin="round"/>
    </symbol>
    <symbol id="save" viewBox="0 0 24 24">
        <path d="M19 21H5C4.46957 21 3.96086 20.7893 3.58579 20.4142C3.21071 20.0391 3 19.5304 3 19V5C3 4.46957 3.21071 3.96086 3.58579 3.58579C3.96086 3.21071 4.46957 3 5 3H16L21 8V19C21 19.5304 20.7893 20.0391 20.4142 20.4142C20.0391 20.7893 19.5304 21 19 21Z" stroke-width="2" stroke-linecap="round" stroke-linejoin="round"/>
        <path d="M17 21V13H7V21" stroke-width="2" stroke-linecap="round" stroke-linejoin="round"/>
        <path d="M7 3V8H15" stroke-width="2" stroke-linecap="round" stroke-linejoin="round"/>
    </symbol>
    <symbol id="refresh-cw" viewBox="0 0 24 24">
        <path d="M23 4V10H17" stroke-width="2" stroke-linecap="round" stroke-linejoin="round"/>
        <path d="M1 20V14H7" stroke-width="2" stroke-linecap="round" stroke-linejoin="round"/>
        <path d="M3.51 9C4.01717 7.56678 4.87913 6.2854 6.01547 5.27542C7.1518 4.26543 8.52547 3.55976 10.0083 3.22426C11.4911 2.88875 13.0348 2.93434 14.4952 3.35677C15.9556 3.77921 17.2853 4.56471 18.36 5.64L23 10M1 14L5.64 18.36C6.71475 19.4353 8.04437 20.2208 9.50481 20.6432C10.9652 21.0657 12.5089 21.1112 13.9917 20.7757C15.4745 20.4402 16.8482 19.7346 17.9845 18.7246C19.1209 17.7146 19.9828 16.4332 20.49 15" stroke-width="2" stroke-linecap="round" stroke-linejoin="round"/>
    </symbol>
    <symbol id="more-horizontal" viewBox="0 0 24 24">
        <path d="M12 13C12.5523 13 13 12.5523 13 12C13 11.4477 12.5523 11 12 11C11.4477 11 11 11.4477 11 12C11 12.5523 11.4477 13 12 13Z" stroke-width="2" stroke-linecap="round" stroke-linejoin="round"/>
        <path d="M19 13C19.5523 13 20 12.5523 20 12C20 11.4477 19.5523 11 19 11C18.4477 11 18 11.4477 18 12C18 12.5523 18.4477 13 19 13Z" stroke-width="2" stroke-linecap="round" stroke-linejoin="round"/>
        <path d="M5 13C5.55228 13 6 12.5523 6 12C6 11.4477 5.55228 11 5 11C4.44772 11 4 11.4477 4 12C4 12.5523 4.44772 13 5 13Z" stroke-width="2" stroke-linecap="round" stroke-linejoin="round"/>
    </symbol>
    <symbol id="more-vertical" viewBox="0 0 24 24">
        <path d="M12 13C12.5523 13 13 12.5523 13 12C13 11.4477 12.5523 11 12 11C11.4477 11 11 11.4477 11 12C11 12.5523 11.4477 13 12 13Z" stroke-width="2" stroke-linecap="round" stroke-linejoin="round"/>
        <path d="M12 6C12.5523 6 13 5.55228 13 5C13 4.44772 12.5523 4 12 4C11.4477 4 11 4.44772 11 5C11 5.55228 11.4477 6 12 6Z" stroke-width="2" stroke-linecap="round" stroke-linejoin="round"/>
        <path d="M12 20C12.5523 20 13 19.5523 13 19C13 18.4477 12.5523 18 12 18C11.4477 18 11 18.4477 11 19C11 19.5523 11.4477 20 12 20Z" stroke-width="2" stroke-linecap="round" stroke-linejoin="round"/>
    </symbol>
    <symbol id="x" viewBox="0 0 24 24">
        <path d="M18 6L6 18" stroke-width="2" stroke-linecap="round" stroke-linejoin="round"/>
        <path d="M6 6L18 18" stroke-width="2" stroke-linecap="round" stroke-linejoin="round"/>
    </symbol>
    <symbol id="phone-call"  viewBox="0 0 24 24">
        <path d="M15.05 5C16.0267 5.19057 16.9244 5.66826 17.6281 6.37194C18.3317 7.07561 18.8094 7.97326 19 8.95M15.05 1C17.0793 1.22544 18.9716 2.13417 20.4162 3.57701C21.8609 5.01984 22.772 6.91101 23 8.94M22 16.92V19.92C22.0011 20.1985 21.9441 20.4742 21.8325 20.7293C21.7209 20.9845 21.5573 21.2136 21.3521 21.4019C21.1468 21.5901 20.9046 21.7335 20.6407 21.8227C20.3769 21.9119 20.0974 21.9451 19.82 21.92C16.7428 21.5856 13.787 20.5341 11.19 18.85C8.77382 17.3147 6.72533 15.2662 5.18999 12.85C3.49997 10.2412 2.44824 7.27099 2.11999 4.18C2.095 3.90347 2.12787 3.62476 2.21649 3.36162C2.30512 3.09849 2.44756 2.85669 2.63476 2.65162C2.82196 2.44655 3.0498 2.28271 3.30379 2.17052C3.55777 2.05833 3.83233 2.00026 4.10999 2H7.10999C7.5953 1.99522 8.06579 2.16708 8.43376 2.48353C8.80173 2.79999 9.04207 3.23945 9.10999 3.72C9.23662 4.68007 9.47144 5.62273 9.80999 6.53C9.94454 6.88792 9.97366 7.27691 9.8939 7.65088C9.81415 8.02485 9.62886 8.36811 9.35999 8.64L8.08999 9.91C9.51355 12.4135 11.5864 14.4864 14.09 15.91L15.36 14.64C15.6319 14.3711 15.9751 14.1858 16.3491 14.1061C16.7231 14.0263 17.1121 14.0555 17.47 14.19C18.3773 14.5286 19.3199 14.7634 20.28 14.89C20.7658 14.9585 21.2094 15.2032 21.5265 15.5775C21.8437 15.9518 22.0122 16.4296 22 16.92Z" stroke-width="2" stroke-linecap="round" stroke-linejoin="round"/>
    </symbol>
    <symbol id="mail"  viewBox="0 0 24 24">
        <path d="M4 4H20C21.1 4 22 4.9 22 6V18C22 19.1 21.1 20 20 20H4C2.9 20 2 19.1 2 18V6C2 4.9 2.9 4 4 4Z" stroke-width="2" stroke-linecap="round" stroke-linejoin="round"/>
        <path d="M22 6L12 13L2 6" stroke-width="2" stroke-linecap="round" stroke-linejoin="round"/>
    </symbol>
    <symbol id="log-in"  viewBox="0 0 24 24">
        <path d="M15 3H19C19.5304 3 20.0391 3.21071 20.4142 3.58579C20.7893 3.96086 21 4.46957 21 5V19C21 19.5304 20.7893 20.0391 20.4142 20.4142C20.0391 20.7893 19.5304 21 19 21H15" stroke-width="2" stroke-linecap="round" stroke-linejoin="round"/>
        <path d="M10 17L15 12L10 7" stroke-width="2" stroke-linecap="round" stroke-linejoin="round"/>
        <path d="M15 12H3" stroke-width="2" stroke-linecap="round" stroke-linejoin="round"/>
    </symbol>
    <symbol id="log-out"  viewBox="0 0 24 24">
        <path d="M9 21H5C4.46957 21 3.96086 20.7893 3.58579 20.4142C3.21071 20.0391 3 19.5304 3 19V5C3 4.46957 3.21071 3.96086 3.58579 3.58579C3.96086 3.21071 4.46957 3 5 3H9" stroke-width="2" stroke-linecap="round" stroke-linejoin="round"/>
        <path d="M16 17L21 12L16 7" stroke-width="2" stroke-linecap="round" stroke-linejoin="round"/>
        <path d="M21 12H9" stroke-width="2" stroke-linecap="round" stroke-linejoin="round"/>
    </symbol>
    <symbol id="bell"  viewBox="0 0 24 24">
        <path d="M13.73 21C13.5542 21.3031 13.3018 21.5547 12.9982 21.7295C12.6946 21.9044 12.3504 21.9965 12 21.9965C11.6496 21.9965 11.3054 21.9044 11.0018 21.7295C10.6982 21.5547 10.4458 21.3031 10.27 21M22 17H2C2.79565 17 3.55871 16.6839 4.12132 16.1213C4.68393 15.5587 5 14.7956 5 14V9C5 7.14348 5.7375 5.36301 7.05025 4.05025C8.36301 2.7375 10.1435 2 12 2C13.8565 2 15.637 2.7375 16.9497 4.05025C18.2625 5.36301 19 7.14348 19 9V14C19 14.7956 19.3161 15.5587 19.8787 16.1213C20.4413 16.6839 21.2044 17 22 17Z" stroke-width="2" stroke-linecap="round" stroke-linejoin="round"/>
    </symbol>
    <symbol id="home"  viewBox="0 0 24 24">
        <path d="M3 9L12 2L21 9V20C21 20.5304 20.7893 21.0391 20.4142 21.4142C20.0391 21.7893 19.5304 22 19 22H5C4.46957 22 3.96086 21.7893 3.58579 21.4142C3.21071 21.0391 3 20.5304 3 20V9Z" stroke-width="2" stroke-linecap="round" stroke-linejoin="round"/>
        <path d="M9 22V12H15V22" stroke-width="2" stroke-linecap="round" stroke-linejoin="round"/>
    </symbol>
    <symbol id="check-square"  viewBox="0 0 24 24">
        <path d="M9 11L12 14L22 4" stroke-width="2" stroke-linecap="round" stroke-linejoin="round"/>
        <path d="M21 12V19C21 19.5304 20.7893 20.0391 20.4142 20.4142C20.0391 20.7893 19.5304 21 19 21H5C4.46957 21 3.96086 20.7893 3.58579 20.4142C3.21071 20.0391 3 19.5304 3 19V5C3 4.46957 3.21071 3.96086 3.58579 3.58579C3.96086 3.21071 4.46957 3 5 3H16" stroke-width="2" stroke-linecap="round" stroke-linejoin="round"/>
    </symbol>
    <symbol id="settings"  viewBox="0 0 24 24">
        <path d="M12 15C13.6569 15 15 13.6569 15 12C15 10.3431 13.6569 9 12 9C10.3431 9 9 10.3431 9 12C9 13.6569 10.3431 15 12 15Z" stroke-width="2" stroke-linecap="round" stroke-linejoin="round"/>
        <path d="M19.4 15C19.2669 15.3016 19.2272 15.6362 19.286 15.9606C19.3448 16.285 19.4995 16.5843 19.73 16.82L19.79 16.88C19.976 17.0657 20.1235 17.2863 20.2241 17.5291C20.3248 17.7719 20.3766 18.0322 20.3766 18.295C20.3766 18.5578 20.3248 18.8181 20.2241 19.0609C20.1235 19.3037 19.976 19.5243 19.79 19.71C19.6043 19.896 19.3837 20.0435 19.1409 20.1441C18.8981 20.2448 18.6378 20.2966 18.375 20.2966C18.1122 20.2966 17.8519 20.2448 17.6091 20.1441C17.3663 20.0435 17.1457 19.896 16.96 19.71L16.9 19.65C16.6643 19.4195 16.365 19.2648 16.0406 19.206C15.7162 19.1472 15.3816 19.1869 15.08 19.32C14.7842 19.4468 14.532 19.6572 14.3543 19.9255C14.1766 20.1938 14.0813 20.5082 14.08 20.83V21C14.08 21.5304 13.8693 22.0391 13.4942 22.4142C13.1191 22.7893 12.6104 23 12.08 23C11.5496 23 11.0409 22.7893 10.6658 22.4142C10.2907 22.0391 10.08 21.5304 10.08 21V20.91C10.0723 20.579 9.96512 20.258 9.77251 19.9887C9.5799 19.7194 9.31074 19.5143 9 19.4C8.69838 19.2669 8.36381 19.2272 8.03941 19.286C7.71502 19.3448 7.41568 19.4995 7.18 19.73L7.12 19.79C6.93425 19.976 6.71368 20.1235 6.47088 20.2241C6.22808 20.3248 5.96783 20.3766 5.705 20.3766C5.44217 20.3766 5.18192 20.3248 4.93912 20.2241C4.69632 20.1235 4.47575 19.976 4.29 19.79C4.10405 19.6043 3.95653 19.3837 3.85588 19.1409C3.75523 18.8981 3.70343 18.6378 3.70343 18.375C3.70343 18.1122 3.75523 17.8519 3.85588 17.6091C3.95653 17.3663 4.10405 17.1457 4.29 16.96L4.35 16.9C4.58054 16.6643 4.73519 16.365 4.794 16.0406C4.85282 15.7162 4.81312 15.3816 4.68 15.08C4.55324 14.7842 4.34276 14.532 4.07447 14.3543C3.80618 14.1766 3.49179 14.0813 3.17 14.08H3C2.46957 14.08 1.96086 13.8693 1.58579 13.4942C1.21071 13.1191 1 12.6104 1 12.08C1 11.5496 1.21071 11.0409 1.58579 10.6658C1.96086 10.2907 2.46957 10.08 3 10.08H3.09C3.42099 10.0723 3.742 9.96512 4.0113 9.77251C4.28059 9.5799 4.48572 9.31074 4.6 9C4.73312 8.69838 4.77282 8.36381 4.714 8.03941C4.65519 7.71502 4.50054 7.41568 4.27 7.18L4.21 7.12C4.02405 6.93425 3.87653 6.71368 3.77588 6.47088C3.67523 6.22808 3.62343 5.96783 3.62343 5.705C3.62343 5.44217 3.67523 5.18192 3.77588 4.93912C3.87653 4.69632 4.02405 4.47575 4.21 4.29C4.39575 4.10405 4.61632 3.95653 4.85912 3.85588C5.10192 3.75523 5.36217 3.70343 5.625 3.70343C5.88783 3.70343 6.14808 3.75523 6.39088 3.85588C6.63368 3.95653 6.85425 4.10405 7.04 4.29L7.1 4.35C7.33568 4.58054 7.63502 4.73519 7.95941 4.794C8.28381 4.85282 8.61838 4.81312 8.92 4.68H9C9.29577 4.55324 9.54802 4.34276 9.72569 4.07447C9.90337 3.80618 9.99872 3.49179 10 3.17V3C10 2.46957 10.2107 1.96086 10.5858 1.58579C10.9609 1.21071 11.4696 1 12 1C12.5304 1 13.0391 1.21071 13.4142 1.58579C13.7893 1.96086 14 2.46957 14 3V3.09C14.0013 3.41179 14.0966 3.72618 14.2743 3.99447C14.452 4.26276 14.7042 4.47324 15 4.6C15.3016 4.73312 15.6362 4.77282 15.9606 4.714C16.285 4.65519 16.5843 4.50054 16.82 4.27L16.88 4.21C17.0657 4.02405 17.2863 3.87653 17.5291 3.77588C17.7719 3.67523 18.0322 3.62343 18.295 3.62343C18.5578 3.62343 18.8181 3.67523 19.0609 3.77588C19.3037 3.87653 19.5243 4.02405 19.71 4.21C19.896 4.39575 20.0435 4.61632 20.1441 4.85912C20.2448 5.10192 20.2966 5.36217 20.2966 5.625C20.2966 5.88783 20.2448 6.14808 20.1441 6.39088C20.0435 6.63368 19.896 6.85425 19.71 7.04L19.65 7.1C19.4195 7.33568 19.2648 7.63502 19.206 7.95941C19.1472 8.28381 19.1869 8.61838 19.32 8.92V9C19.4468 9.29577 19.6572 9.54802 19.9255 9.72569C20.1938 9.90337 20.5082 9.99872 20.83 10H21C21.5304 10 22.0391 10.2107 22.4142 10.5858C22.7893 10.9609 23 11.4696 23 12C23 12.5304 22.7893 13.0391 22.4142 13.4142C22.0391 13.7893 21.5304 14 21 14H20.91C20.5882 14.0013 20.2738 14.0966 20.0055 14.2743C19.7372 14.452 19.5268 14.7042 19.4 15V15Z" stroke-width="2" stroke-linecap="round" stroke-linejoin="round"/>
    </symbol>
    <symbol id="round-user"  viewBox="0 0 28 28">
        <path d="M22 24V22C22 20.9391 21.5786 19.9217 20.8284 19.1716C20.0783 18.4214 19.0609 18 18 18H10C8.93913 18 7.92172 18.4214 7.17157 19.1716C6.42143 19.9217 6 20.9391 6 22V24" stroke-width="2" stroke-linecap="round" stroke-linejoin="round"/>
        <path d="M14 14C16.2091 14 18 12.2091 18 10C18 7.79086 16.2091 6 14 6C11.7909 6 10 7.79086 10 10C10 12.2091 11.7909 14 14 14Z" stroke-width="2" stroke-linecap="round" stroke-linejoin="round"/>
        <circle cx="14" cy="14" r="13" stroke-width="2"/>
    </symbol>
    <symbol id="edit" viewBox="0 0 24 24">
        <path d="M20 14.66V20C20 20.5304 19.7893 21.0391 19.4142 21.4142C19.0391 21.7893 18.5304 22 18 22H4C3.46957 22 2.96086 21.7893 2.58579 21.4142C2.21071 21.0391 2 20.5304 2 20V6C2 5.46957 2.21071 4.96086 2.58579 4.58579C2.96086 4.21071 3.46957 4 4 4H9.34" stroke-width="2" stroke-linecap="round" stroke-linejoin="round"/>
        <path d="M18 2L22 6L12 16H8V12L18 2Z" stroke-width="2" stroke-linecap="round" stroke-linejoin="round"/>
    </symbol>
    <symbol id="edit-2" viewBox="0 0 24 24">
        <path d="M16 3L21 8L8 21H3V16L16 3Z" stroke-width="2" stroke-linecap="round" stroke-linejoin="round"/>
    </symbol>
    <symbol id="book" viewBox="0 0 24 24">
        <path d="M4 19.5C4 18.837 4.26339 18.2011 4.73223 17.7322C5.20107 17.2634 5.83696 17 6.5 17H20" stroke-width="2" stroke-linecap="round" stroke-linejoin="round"/>
        <path d="M6.5 2H20V22H6.5C5.83696 22 5.20107 21.7366 4.73223 21.2678C4.26339 20.7989 4 20.163 4 19.5V4.5C4 3.83696 4.26339 3.20107 4.73223 2.73223C5.20107 2.26339 5.83696 2 6.5 2V2Z" stroke-width="2" stroke-linecap="round" stroke-linejoin="round"/>
    </symbol>
    <symbol id="external-link" viewBox="0 0 24 24">
        <path d="M18 13V19C18 19.5304 17.7893 20.0391 17.4142 20.4142C17.0391 20.7893 16.5304 21 16 21H5C4.46957 21 3.96086 20.7893 3.58579 20.4142C3.21071 20.0391 3 19.5304 3 19V8C3 7.46957 3.21071 6.96086 3.58579 6.58579C3.96086 6.21071 4.46957 6 5 6H11" stroke-width="2" stroke-linecap="round" stroke-linejoin="round"/>
        <path d="M15 3H21V9" stroke-width="2" stroke-linecap="round" stroke-linejoin="round"/>
        <path d="M10 14L21 3" stroke-width="2" stroke-linecap="round" stroke-linejoin="round"/>
    </symbol>
    <symbol id="plugin" viewBox="0 0 24 24">
        <g><path d="M12.162,5.271c-0.848,0.227 -1.621,0.673 -2.241,1.294c-1.952,1.951 -1.952,5.119 -0,7.071c1.951,1.951 5.119,1.951 7.071,-0c0.62,-0.621 1.067,-1.394 1.294,-2.242l-6.124,-6.123Z" style="fill:none;stroke-width:2px;"/><path d="M16.963,3l-3.536,3.536" style="fill:none;stroke-width:2px;stroke-miterlimit:1.5;"/><path d="M20.498,6.536l-3.535,3.535" style="fill:none;stroke-width:2px;stroke-miterlimit:1.5;"/><path d="M14.536,12.536l-3.536,-3.536" style="fill:none;stroke-width:2px;stroke-miterlimit:1.5;"/><path d="M9.921,13.636l-6.365,6.364" style="fill:none;stroke-width:2px;stroke-miterlimit:1.5;"/></g>
    </symbol>
    <symbol id="automaton" viewBox="0 0 24 24">
        <g><path d="M20,6.322c0,-1.329 -1.079,-2.409 -2.409,-2.409l-10.182,0c-1.33,0 -2.409,1.08 -2.409,2.409l0,4.818c0,1.33 1.079,2.409 2.409,2.409l10.182,0c1.33,0 2.409,-1.079 2.409,-2.409l0,-4.818Z" style="fill:none;stroke-width:2px;"/><path d="M15,14.799c0,-0.69 -0.56,-1.25 -1.25,-1.25l-2.5,0c-0.69,0 -1.25,0.56 -1.25,1.25l0,3.801c0,0.69 0.56,1.25 1.25,1.25l2.5,-0c0.69,-0 1.25,-0.56 1.25,-1.25l0,-3.801Z" style="fill:none;stroke-width:2px;"/><g><path d="M9.158,1.85l0,1.749" style="fill:none;stroke-width:2px;"/><path d="M15.842,1.85l-0,1.749" style="fill:none;stroke-width:2px;"/></g><path d="M15,16.85l2,-0" style="fill:none;stroke-width:2px;"/><path d="M15,18l0,4" style="fill:none;stroke-width:2px;"/><path d="M10,18l0,4" style="fill:none;stroke-width:2px;"/><path d="M8,16.85l2,-0" style="fill:none;stroke-width:2px;"/><path d="M10.732,10.7l3.536,-0" style="fill:none;stroke-width:2px;"/><g><path d="M16.867,7.064l0,1.749" style="fill:none;stroke-width:2px;"/><path d="M8.133,7.064l-0,1.749" style="fill:none;stroke-width:2px;"/></g></g>
    </symbol>
    <symbol id="grid" viewBox="0 0 24 24">
        <path d="M10 3H3V10H10V3Z" stroke-width="2" stroke-linecap="round" stroke-linejoin="round"/>
        <path d="M21 3H14V10H21V3Z" stroke-width="2" stroke-linecap="round" stroke-linejoin="round"/>
        <path d="M21 14H14V21H21V14Z" stroke-width="2" stroke-linecap="round" stroke-linejoin="round"/>
        <path d="M10 14H3V21H10V14Z" stroke-width="2" stroke-linecap="round" stroke-linejoin="round"/>
    </symbol>
    <symbol id="info" viewBox="0 0 24 24">
        <g clip-path="url(#clip0)">
            <path d="M12 22C17.5228 22 22 17.5228 22 12C22 6.47715 17.5228 2 12 2C6.47715 2 2 6.47715 2 12C2 17.5228 6.47715 22 12 22Z" stroke-width="2" stroke-linecap="round" stroke-linejoin="round"/>
            <path d="M12 16V12" stroke-width="2" stroke-linecap="round" stroke-linejoin="round"/>
            <path d="M12 8H12.01" stroke-width="2" stroke-linecap="round" stroke-linejoin="round"/>
        </g>
        <defs>
            <clipPath id="clip0">
                <rect width="24" height="24" fill="white"/>
            </clipPath>
        </defs>
    </symbol>
</svg>
