<?xml version="1.0" encoding="UTF-8" standalone="no"?>
<!DOCTYPE svg PUBLIC "-//W3C//DTD SVG 1.1//EN" "http://www.w3.org/Graphics/SVG/1.1/DTD/svg11.dtd">
<svg width="100%" height="100%" viewBox="0 0 230 79" version="1.1" xmlns="http://www.w3.org/2000/svg" xmlns:xlink="http://www.w3.org/1999/xlink" xml:space="preserve" xmlns:serif="http://www.serif.com/" style="fill-rule:evenodd;clip-rule:evenodd;stroke-linejoin:round;stroke-miterlimit:2;">
    <g transform="matrix(1,0,0,1,-753,-984)">
        <g transform="matrix(1,0,0,1.60889,0,0)">
            <g transform="matrix(1,0,0,1,-169.085,85.9871)">
                <g transform="matrix(4.52111,0,0,2.81009,-1026.41,-997.004)">
                    <path d="M431.202,558.541C431.118,558.829 431.442,559.141 431.778,559.141C432.15,559.141 432.342,558.829 432.426,558.541L432.882,557.101L435.437,557.101L435.881,558.541C435.965,558.829 436.157,559.141 436.529,559.141C436.865,559.141 437.189,558.829 437.105,558.541L434.789,550.418C434.705,550.106 434.561,549.806 434.166,549.806C433.782,549.806 433.65,550.094 433.554,550.418L431.202,558.541ZM435.101,555.902L433.218,555.902L434.154,552.65L434.178,552.65L435.101,555.902Z" style="fill:white;fill-rule:nonzero;"/>
                </g>
                <g transform="matrix(4.52111,0,0,2.81009,-1029.93,-997.004)">
                    <path d="M443.106,553.825C443.418,553.825 443.622,553.849 443.814,554.053C443.958,554.209 444.09,554.293 444.306,554.293C444.617,554.293 444.893,554.041 444.893,553.717C444.893,553.394 444.653,553.25 444.438,553.07C444.006,552.71 443.742,552.674 443.106,552.674L441.137,552.674C440.273,552.674 439.554,553.226 439.554,554.137C439.554,554.881 439.926,555.253 440.561,555.542L443.274,556.778C443.538,556.898 443.874,557.078 443.874,557.354C443.874,558.026 443.322,557.99 442.914,557.99L441.353,557.99C440.993,557.99 440.633,557.966 440.429,557.738C440.297,557.594 440.166,557.534 439.986,557.534C439.662,557.534 439.386,557.786 439.386,558.11C439.386,558.398 439.698,558.614 439.914,558.781C440.345,559.117 440.753,559.141 441.353,559.141L443.13,559.141C444.234,559.141 445.025,558.59 445.025,557.426C445.025,556.598 444.641,556.13 443.898,555.794L441.017,554.485C440.849,554.413 440.705,554.341 440.705,554.149C440.705,553.777 441.113,553.825 441.353,553.825L443.106,553.825Z" style="fill:white;fill-rule:nonzero;"/>
                </g>
                <g transform="matrix(4.52111,0,0,2.81009,-1035.05,-997.004)">
                    <path d="M449.741,553.825L451.673,553.825C452.009,553.825 452.465,553.753 452.465,553.25C452.465,552.758 452.057,552.674 451.673,552.674L449.741,552.674L449.741,551.498C449.741,551.102 449.657,550.706 449.166,550.706C448.674,550.706 448.59,551.102 448.59,551.498L448.59,552.674L448.218,552.674C447.834,552.674 447.426,552.758 447.426,553.25C447.426,553.753 447.882,553.825 448.218,553.825L448.59,553.825L448.59,556.958C448.59,557.582 448.566,558.074 449.01,558.566C449.417,559.009 449.921,559.141 450.497,559.141L451.085,559.141C451.697,559.141 452.249,559.057 452.669,558.554C452.861,558.326 453.065,557.918 453.065,557.594C453.065,557.27 452.801,557.018 452.477,557.018C452.189,557.018 451.973,557.21 451.901,557.486C451.781,557.954 451.565,557.99 451.097,557.99L450.509,557.99C449.717,557.99 449.741,557.618 449.741,556.97L449.741,553.825Z" style="fill:white;fill-rule:nonzero;"/>
                </g>
                <g transform="matrix(4.52111,0,0,2.81009,-1038.17,-997.004)">
                    <path d="M455.466,558.349C455.466,558.745 455.55,559.141 456.042,559.141C456.533,559.141 456.617,558.745 456.617,558.349L456.617,555.433L458.226,554.101C458.43,553.933 458.586,553.825 458.802,553.825L459.138,553.825C459.414,553.825 459.69,553.825 459.834,554.029C459.954,554.197 459.954,554.341 459.954,554.533C459.954,554.905 460.122,555.241 460.542,555.241C461.033,555.241 461.105,554.833 461.105,554.437C461.105,553.909 460.973,553.513 460.589,553.13C460.278,552.818 459.906,552.674 459.462,552.674L458.538,552.674C458.178,552.674 457.841,552.902 457.517,553.166L456.617,553.909L456.617,553.441C456.617,553.058 456.497,552.674 456.042,552.674C455.514,552.674 455.466,553.106 455.466,553.525L455.466,558.349Z" style="fill:white;fill-rule:nonzero;"/>
                </g>
                <g transform="matrix(4.52111,0,0,2.81009,-1042.29,-997.004)">
                    <path d="M469.145,553.466C469.145,553.07 469.061,552.674 468.57,552.674C468.078,552.674 467.994,553.07 467.994,553.466L467.994,556.814L466.302,557.882C466.193,557.954 466.073,557.99 465.941,557.99L465.557,557.99C465.281,557.99 464.981,557.918 464.885,557.75C464.789,557.582 464.777,557.27 464.765,557.006L464.645,553.466C464.633,553.094 464.573,552.674 464.082,552.674C463.554,552.674 463.494,553.118 463.506,553.538L463.626,557.162C463.65,557.786 463.638,558.278 464.154,558.722C464.537,559.045 464.897,559.141 465.221,559.141L466.073,559.141C466.386,559.141 466.698,558.997 467.07,558.757L468.006,558.146L468.006,558.338C468.006,558.734 468.09,559.141 468.582,559.141C469.193,559.141 469.145,558.554 469.145,558.29L469.145,553.466Z" style="fill:white;fill-rule:nonzero;"/>
                </g>
                <g transform="matrix(4.52111,0,0,2.81009,-1045.41,-997.004)">
                    <path d="M475.181,554.341C475.277,554.233 475.494,553.945 475.662,553.945C475.974,553.945 475.914,554.353 475.926,554.557L476.046,558.361C476.058,558.745 476.154,559.141 476.621,559.141C477.137,559.141 477.197,558.685 477.185,558.277L477.065,554.293C477.053,553.849 477.077,553.514 476.789,553.142C476.562,552.842 476.214,552.674 475.83,552.674C475.325,552.674 475.181,552.794 474.821,553.154L474.725,553.25C474.461,552.89 474.114,552.674 473.67,552.674C473.274,552.674 473.093,552.83 472.793,553.058L472.697,553.13C472.625,552.866 472.433,552.674 472.146,552.674C471.654,552.674 471.546,553.082 471.546,553.49L471.546,558.349C471.546,558.745 471.63,559.141 472.122,559.141C472.613,559.141 472.697,558.745 472.697,558.349L472.697,554.605L473.202,554.137C473.298,554.053 473.382,553.945 473.514,553.945C473.814,553.945 473.79,554.305 473.79,554.497L473.79,558.349C473.79,558.745 473.874,559.141 474.366,559.141C474.857,559.141 474.941,558.745 474.941,558.349L474.941,554.605L475.181,554.341Z" style="fill:white;fill-rule:nonzero;"/>
                </g>
            </g>
            <g transform="matrix(0.482675,0,0,0.482675,402.072,526.541)">
                <g transform="matrix(0.922241,0,0,0.573216,26.6881,-586.083)">
                    <path d="M1249,1358.9L1275,1404.02L1244,1404.02L1233.5,1385.8L1232.39,1384.25L1247.58,1358.9L1249,1358.9Z" style="fill:url(#_Linear1);"/>
                </g>
                <g transform="matrix(-0.922241,-7.01988e-17,1.12942e-16,-0.573216,2301.86,1027.41)">
                    <path d="M1249,1358.9L1275,1404.02L1244,1404.02L1233.5,1385.8L1232.39,1384.25L1247.58,1358.9L1249,1358.9Z" style="fill:url(#_Linear2);"/>
                </g>
                <g transform="matrix(0.922241,0,0,0.573216,26.6881,-503.731)">
                    <path d="M1249,1215.23L1223,1260.36L1192,1260.36L1233.5,1188.33L1249,1215.23Z" style="fill:rgb(147,223,149);"/>
                </g>
                <g transform="matrix(-0.922241,-7.01988e-17,1.12942e-16,-0.573216,2301.86,945.061)">
                    <path d="M1249,1215.23L1223,1260.36L1192,1260.36L1233.5,1188.33L1249,1215.23Z" style="fill:rgb(147,223,149);"/>
                </g>
            </g>
            <g transform="matrix(0.868033,0,0,0.842182,-1126.72,496.02)">
                <g transform="matrix(1.90433,-3.00744e-32,4.69454e-32,1.21996,-1993.84,-183.831)">
                    <path d="M2280.2,277.204L2282.13,277.204C2282.46,277.204 2282.92,277.132 2282.92,276.629C2282.92,276.137 2282.51,276.053 2282.13,276.053L2280.2,276.053L2280.2,274.877C2280.2,274.481 2280.11,274.085 2279.62,274.085C2279.13,274.085 2279.05,274.481 2279.05,274.877L2279.05,276.053L2278.67,276.053C2278.29,276.053 2277.88,276.137 2277.88,276.629C2277.88,277.132 2278.34,277.204 2278.67,277.204L2279.05,277.204L2279.05,280.337C2279.05,280.961 2279.02,281.453 2279.46,281.945C2279.87,282.388 2280.38,282.52 2280.95,282.52L2281.54,282.52C2282.15,282.52 2282.7,282.436 2283.12,281.933C2283.32,281.705 2283.52,281.297 2283.52,280.973C2283.52,280.649 2283.26,280.397 2282.93,280.397C2282.64,280.397 2282.43,280.589 2282.36,280.865C2282.24,281.333 2282.02,281.369 2281.55,281.369L2280.96,281.369C2280.17,281.369 2280.2,280.997 2280.2,280.349L2280.2,277.204Z" style="fill:rgb(116,207,119);fill-rule:nonzero;"/>
                </g>
                <g transform="matrix(1.90433,-3.00744e-32,4.69454e-32,1.21996,-1993.84,-183.831)">
                    <path d="M2290.96,278.788C2290.96,277.972 2290.9,277.648 2290.23,277.12L2289.53,276.581C2289.22,276.341 2288.85,276.053 2288.57,276.053L2287.78,276.053C2287.46,276.053 2287,276.485 2286.7,276.748L2286.47,276.952L2286.47,276.808C2286.47,276.425 2286.36,276.053 2285.9,276.053C2285.37,276.053 2285.32,276.497 2285.32,276.904L2285.32,284.176C2285.32,284.572 2285.41,284.968 2285.9,284.968C2286.39,284.968 2286.47,284.572 2286.47,284.176L2286.47,281.861L2286.7,282.077C2287.07,282.424 2287.31,282.76 2287.83,282.76L2288.61,282.76C2288.92,282.76 2289.29,282.436 2289.53,282.244L2290.23,281.693C2290.9,281.165 2290.96,280.853 2290.96,280.025L2290.96,278.788ZM2289.81,280.181C2289.81,280.397 2289.75,280.529 2289.57,280.685L2288.7,281.405C2288.6,281.501 2288.46,281.609 2288.31,281.609L2288.01,281.609C2287.86,281.609 2287.68,281.453 2287.52,281.285L2286.64,280.457C2286.52,280.349 2286.47,280.133 2286.47,279.965L2286.47,278.836C2286.47,278.584 2286.56,278.452 2286.8,278.224L2287.52,277.54C2287.64,277.42 2287.84,277.204 2288.01,277.204L2288.31,277.204C2288.46,277.204 2288.6,277.312 2288.7,277.408L2289.57,278.128C2289.75,278.284 2289.81,278.416 2289.81,278.632L2289.81,280.181Z" style="fill:rgb(116,207,119);fill-rule:nonzero;"/>
                </g>
                <g transform="matrix(1.90433,-3.00744e-32,4.69454e-32,1.21996,-1994.92,-183.831)">
                    <path d="M2296.18,274.48C2296.18,273.797 2295.99,273.677 2295.33,273.677L2294.12,273.677C2293.73,273.677 2293.33,273.761 2293.33,274.253C2293.33,274.756 2293.78,274.828 2294.12,274.828L2295.03,274.828L2295.03,281.369L2294.12,281.369C2293.73,281.369 2293.33,281.453 2293.33,281.945C2293.33,282.448 2293.78,282.52 2294.12,282.52L2297.04,282.52C2297.38,282.52 2297.84,282.448 2297.84,281.945C2297.84,281.453 2297.43,281.369 2297.04,281.369L2296.18,281.369L2296.18,274.48Z" style="fill:rgb(116,207,119);fill-rule:nonzero;"/>
                </g>
            </g>
        </g>
    </g>
    <defs>
        <linearGradient id="_Linear1" x1="0" y1="0" x2="1" y2="0" gradientUnits="userSpaceOnUse" gradientTransform="matrix(-15.2008,-23.1737,23.1737,-15.2008,1255.03,1393.12)"><stop offset="0" style="stop-color:rgb(147,223,149);stop-opacity:1"/><stop offset="1" style="stop-color:rgb(100,198,103);stop-opacity:1"/></linearGradient>
        <linearGradient id="_Linear2" x1="0" y1="0" x2="1" y2="0" gradientUnits="userSpaceOnUse" gradientTransform="matrix(-15.2008,-23.1737,23.1737,-15.2008,1255.03,1393.12)"><stop offset="0" style="stop-color:rgb(147,223,149);stop-opacity:1"/><stop offset="1" style="stop-color:rgb(100,198,103);stop-opacity:1"/></linearGradient>
    </defs>
</svg>
